<svg xmlns="http://www.w3.org/2000/svg" viewBox="0 0 425 300"><defs><style>.cls-1{isolation:isolate;}.cls-2{fill:#eaeaea;}.cls-3{fill:#2b8d4f;}.cls-4{fill:#fff;}.cls-5{mix-blend-mode:multiply;}.cls-6{fill:#5e5e5e;}</style></defs><g class="cls-1"><g id="Layer_1" data-name="Layer 1"><path d="M125.2,36a8.83,8.83,0,0,1,2.17-5.79,7.83,7.83,0,0,1,2.6-2,8,8,0,0,1,3.48-.73,7.37,7.37,0,0,1,4,1,6.59,6.59,0,0,1,2.49,2.68l-2.11,1.41A4.49,4.49,0,0,0,136.61,31a4.4,4.4,0,0,0-1.58-.84,6.18,6.18,0,0,0-1.67-.24,4.88,4.88,0,0,0-2.35.54,5.24,5.24,0,0,0-1.7,1.43,6.38,6.38,0,0,0-1,2,7.39,7.39,0,0,0-.35,2.21,7,7,0,0,0,.41,2.36,6.57,6.57,0,0,0,1.14,2,5.54,5.54,0,0,0,1.74,1.38,5,5,0,0,0,2.21.5,5.28,5.28,0,0,0,1.7-.29,5,5,0,0,0,1.65-.9A4.08,4.08,0,0,0,138,39.52l2.23,1.28A5.4,5.4,0,0,1,138.55,43a7.89,7.89,0,0,1-2.49,1.34,8.79,8.79,0,0,1-2.73.46,7.17,7.17,0,0,1-3.28-.76,8.17,8.17,0,0,1-2.57-2,9.51,9.51,0,0,1-1.68-2.83A8.87,8.87,0,0,1,125.2,36Z"/><path d="M148,44.88a6.44,6.44,0,0,1-2.66-.52,6.17,6.17,0,0,1-2-1.41A6.45,6.45,0,0,1,142,40.89a6.72,6.72,0,0,1-.45-2.46A6.81,6.81,0,0,1,142,36a6.35,6.35,0,0,1,1.31-2.06,6.23,6.23,0,0,1,2-1.4,7.17,7.17,0,0,1,5.31,0,6.23,6.23,0,0,1,2,1.4A6.32,6.32,0,0,1,154,36a6.61,6.61,0,0,1,.46,2.47,6.52,6.52,0,0,1-.46,2.46,6.43,6.43,0,0,1-1.3,2.06,6.11,6.11,0,0,1-2,1.41A6.54,6.54,0,0,1,148,44.88Zm-3.74-6.42a4.51,4.51,0,0,0,.5,2.12,4,4,0,0,0,1.35,1.5,3.52,3.52,0,0,0,3.78,0,3.88,3.88,0,0,0,1.35-1.51,4.68,4.68,0,0,0,0-4.25,3.92,3.92,0,0,0-1.35-1.5,3.4,3.4,0,0,0-1.89-.56,3.29,3.29,0,0,0-1.89.57,4.25,4.25,0,0,0-1.35,1.5A4.55,4.55,0,0,0,144.23,38.46Z"/><path d="M168,44.64H165.4v-7a4.42,4.42,0,0,0-.57-2.53,1.89,1.89,0,0,0-1.66-.81,3.42,3.42,0,0,0-1.53.38,4.72,4.72,0,0,0-1.35,1,4,4,0,0,0-.87,1.5v7.4h-2.64V32.18h2.4V34.7a4.82,4.82,0,0,1,1.26-1.44,6,6,0,0,1,1.77-.94,6.47,6.47,0,0,1,2.08-.33,3.77,3.77,0,0,1,1.86.4,3,3,0,0,1,1.16,1.11,4.53,4.53,0,0,1,.57,1.61,11,11,0,0,1,.16,1.94Z"/><path d="M171.73,44.64V34.44h-1.68v-2h1.68v-.51a6.58,6.58,0,0,1,.5-2.66,3.91,3.91,0,0,1,1.39-1.74,3.67,3.67,0,0,1,2.12-.61,5.5,5.5,0,0,1,1.51.2,7,7,0,0,1,1.42.56l-.58,2a2.87,2.87,0,0,0-.85-.37,3.56,3.56,0,0,0-1-.13,1.64,1.64,0,0,0-1.41.69,3.4,3.4,0,0,0-.51,2v.58h3.22v2h-3.22v10.2Z"/><path d="M179.44,39.8V32.18h2.64v7.09a4.27,4.27,0,0,0,.61,2.51,2.07,2.07,0,0,0,1.79.84,3.54,3.54,0,0,0,1.45-.31,4.15,4.15,0,0,0,1.3-.91,4.64,4.64,0,0,0,.94-1.46V32.18h2.64v9.49a1,1,0,0,0,.17.64.74.74,0,0,0,.55.21v2.12c-.27,0-.49.08-.67.09l-.5,0a1.85,1.85,0,0,1-1.2-.4,1.5,1.5,0,0,1-.56-1l0-1.24a5.55,5.55,0,0,1-2.19,2.06,6.24,6.24,0,0,1-3,.71,3.53,3.53,0,0,1-3-1.29A6,6,0,0,1,179.44,39.8Z"/><path d="M198.64,44.88a8.76,8.76,0,0,1-3-.52,6.3,6.3,0,0,1-2.43-1.55l1-1.77a7.41,7.41,0,0,0,2.17,1.39,5.82,5.82,0,0,0,2.17.43,3.53,3.53,0,0,0,1.8-.41,1.34,1.34,0,0,0,.7-1.21,1,1,0,0,0-.36-.88,3.21,3.21,0,0,0-1.05-.5L198,39.38a16.09,16.09,0,0,1-2.26-.84,3.56,3.56,0,0,1-1.37-1.08,2.81,2.81,0,0,1-.45-1.64,3.45,3.45,0,0,1,.62-2.07,4,4,0,0,1,1.74-1.31,6.91,6.91,0,0,1,2.58-.45,7.38,7.38,0,0,1,2.53.42,5.49,5.49,0,0,1,2.06,1.31l-1.13,1.75a5.86,5.86,0,0,0-1.72-1.13,4.88,4.88,0,0,0-1.88-.36,4.5,4.5,0,0,0-1.11.13,1.93,1.93,0,0,0-.87.47,1.32,1.32,0,0,0-.35,1,1.12,1.12,0,0,0,.29.8,2.26,2.26,0,0,0,.86.53c.39.14.86.3,1.42.47,1,.29,1.81.57,2.49.84a4.19,4.19,0,0,1,1.6,1.07,2.63,2.63,0,0,1,.56,1.79,3.32,3.32,0,0,1-1.35,2.82A5.94,5.94,0,0,1,198.64,44.88Z"/><path d="M206,30v-2.9h2.64V30Zm0,14.62V32.08h2.64V44.64Z"/><path d="M217.4,44.88a6.44,6.44,0,0,1-2.66-.52,6.17,6.17,0,0,1-2-1.41,6.45,6.45,0,0,1-1.31-2.06,6.72,6.72,0,0,1-.45-2.46A6.81,6.81,0,0,1,211.4,36a6.35,6.35,0,0,1,1.31-2.06,6.23,6.23,0,0,1,2-1.4,7.17,7.17,0,0,1,5.31,0,6.23,6.23,0,0,1,2,1.4A6.32,6.32,0,0,1,223.4,36a6.61,6.61,0,0,1,.46,2.47,6.52,6.52,0,0,1-.46,2.46A6.43,6.43,0,0,1,222.1,43a6.11,6.11,0,0,1-2,1.41A6.54,6.54,0,0,1,217.4,44.88Zm-3.74-6.42a4.51,4.51,0,0,0,.5,2.12,4,4,0,0,0,1.35,1.5,3.52,3.52,0,0,0,3.78,0,3.88,3.88,0,0,0,1.35-1.51,4.68,4.68,0,0,0,0-4.25,3.92,3.92,0,0,0-1.35-1.5,3.4,3.4,0,0,0-1.89-.56,3.29,3.29,0,0,0-1.89.57,4.25,4.25,0,0,0-1.35,1.5A4.55,4.55,0,0,0,213.66,38.46Z"/><path d="M237.47,44.64h-2.64v-7a4.42,4.42,0,0,0-.57-2.53,1.89,1.89,0,0,0-1.66-.81,3.42,3.42,0,0,0-1.53.38,4.72,4.72,0,0,0-1.35,1,4,4,0,0,0-.87,1.5v7.4h-2.64V32.18h2.4V34.7a4.82,4.82,0,0,1,1.26-1.44,6,6,0,0,1,1.77-.94,6.47,6.47,0,0,1,2.08-.33,3.77,3.77,0,0,1,1.86.4,3,3,0,0,1,1.16,1.11,4.53,4.53,0,0,1,.57,1.61,11,11,0,0,1,.16,1.94Z"/><path d="M261.13,44.64V32.49l-5,9.22h-1.59l-5-9.22V44.64H246.8v-17h2.88L255.32,38,261,27.6h2.88v17Z"/><path d="M266.29,41a3.3,3.3,0,0,1,.69-2.08,4.26,4.26,0,0,1,1.88-1.38,7.26,7.26,0,0,1,2.78-.49,12.76,12.76,0,0,1,1.72.12,6.63,6.63,0,0,1,1.55.39v-.79a2.64,2.64,0,0,0-.79-2,3.25,3.25,0,0,0-2.29-.74,5.34,5.34,0,0,0-2,.38,11.27,11.27,0,0,0-2,1L267,33.64a9.92,9.92,0,0,1,2.51-1.24,8.35,8.35,0,0,1,2.65-.41,5.71,5.71,0,0,1,4,1.31A4.8,4.8,0,0,1,277.55,37v4.63a1.06,1.06,0,0,0,.15.64.71.71,0,0,0,.54.21v2.12a5.91,5.91,0,0,1-.65.09l-.47,0a1.8,1.8,0,0,1-1.28-.41,1.56,1.56,0,0,1-.5-1l-.07-.72a5.44,5.44,0,0,1-2.09,1.63,6.24,6.24,0,0,1-2.57.58,4.67,4.67,0,0,1-2.23-.52A3.85,3.85,0,0,1,266.84,43,3.59,3.59,0,0,1,266.29,41Zm8,.75a2.71,2.71,0,0,0,.46-.61,1.23,1.23,0,0,0,.17-.54V39.18a8.21,8.21,0,0,0-2.88-.52,4.31,4.31,0,0,0-2.34.57,1.74,1.74,0,0,0-.9,1.55,2,2,0,0,0,.3,1,2.22,2.22,0,0,0,.86.8,2.86,2.86,0,0,0,1.41.31A4.26,4.26,0,0,0,273,42.6,3.5,3.5,0,0,0,274.28,41.75Z"/><path d="M287.63,44q-.35.16-.84.36a9.19,9.19,0,0,1-1.14.33,5.72,5.72,0,0,1-1.31.15,3.94,3.94,0,0,1-1.51-.29,2.4,2.4,0,0,1-1.12-.92,2.91,2.91,0,0,1-.42-1.64V34.22h-1.65v-2h1.65V28.05h2.64v4.13h2.74v2h-2.74v7a1.27,1.27,0,0,0,.42,1,1.39,1.39,0,0,0,.93.31,2.87,2.87,0,0,0,1.05-.19c.34-.13.59-.23.75-.31Z"/><path d="M296.51,34.36a5.67,5.67,0,0,0-2.73.7,3.81,3.81,0,0,0-1.69,1.9v7.68h-2.64V32.18h2.45v2.71a5.71,5.71,0,0,1,1.7-2.07,4.19,4.19,0,0,1,2.23-.86h.4a1.2,1.2,0,0,1,.28,0Z"/><path d="M298.43,30v-2.9h2.64V30Zm0,14.62V32.08h2.64V44.64Z"/><path d="M305.72,32.18l3,4.26.21.41.22-.41,2.95-4.26h2.86l-4.51,6.24L315,44.64h-2.86l-3-4.24-.22-.38-.21.38-3,4.24h-2.86l4.56-6.2-4.51-6.26Z"/><path class="cls-2" d="M97.48,115.16h313.2a0,0,0,0,1,0,0v156a0,0,0,0,1,0,0H93.48a0,0,0,0,1,0,0v-152A4,4,0,0,1,97.48,115.16Z"/><path class="cls-3" d="M122.08,64.07h284.6a4,4,0,0,1,4,4v47.09a0,0,0,0,1,0,0H118.08a0,0,0,0,1,0,0V68.07A4,4,0,0,1,122.08,64.07Z"/><path class="cls-3" d="M-8.12,140.91h148a4,4,0,0,1,4,4V245.37a0,0,0,0,1,0,0h-156a0,0,0,0,1,0,0V144.91A4,4,0,0,1-8.12,140.91Z" transform="translate(-127.28 259) rotate(-90)"/><path class="cls-4" d="M165.48,76.08h1.57l4.09,10.52h-1.75l-1-2.86h-4.2l-1,2.86h-1.76Zm2.44,6.43-1.66-4.61-1.66,4.61Z"/><path class="cls-4" d="M175.51,86.75a4.14,4.14,0,0,1-1.64-.32,3.74,3.74,0,0,1-1.26-.87,4,4,0,0,1-.83-1.28,4.1,4.1,0,0,1-.28-1.52,4,4,0,0,1,.49-2,4,4,0,0,1,1.39-1.44,4.06,4.06,0,0,1,2.13-.54,4,4,0,0,1,2.07.53,3.16,3.16,0,0,1,1.29,1.4l-1.58.5a2,2,0,0,0-.75-.76,2.12,2.12,0,0,0-1.06-.28,2.19,2.19,0,0,0-1.18.33,2.36,2.36,0,0,0-.83.91,2.85,2.85,0,0,0-.3,1.34,2.79,2.79,0,0,0,.31,1.32,2.52,2.52,0,0,0,.84.93,2.1,2.1,0,0,0,1.18.35,2.28,2.28,0,0,0,.77-.14,2.14,2.14,0,0,0,.66-.39,1.36,1.36,0,0,0,.4-.54l1.6.47a2.85,2.85,0,0,1-.74,1,4,4,0,0,1-1.18.7A4.22,4.22,0,0,1,175.51,86.75Z"/><path class="cls-4" d="M184.59,86.23a4.79,4.79,0,0,1-.52.22,4.88,4.88,0,0,1-.7.21,3.59,3.59,0,0,1-.81.09,2.41,2.41,0,0,1-.93-.18,1.48,1.48,0,0,1-.69-.57,1.8,1.8,0,0,1-.26-1V80.17h-1V78.91h1V76.36h1.63v2.55H184v1.26h-1.69v4.3a.82.82,0,0,0,.26.59.84.84,0,0,0,.57.19,1.75,1.75,0,0,0,.65-.12l.46-.19Z"/><path class="cls-4" d="M185.65,83.62V78.91h1.63v4.38a2.61,2.61,0,0,0,.37,1.54,1.29,1.29,0,0,0,1.11.53,2.33,2.33,0,0,0,.89-.19,2.56,2.56,0,0,0,.8-.57,2.71,2.71,0,0,0,.59-.9V78.91h1.63v5.86a.57.57,0,0,0,.1.39.49.49,0,0,0,.34.14v1.3l-.41.06h-.31a1.12,1.12,0,0,1-.74-.24.9.9,0,0,1-.34-.62l0-.77a3.42,3.42,0,0,1-1.35,1.27,3.88,3.88,0,0,1-1.82.44,2.19,2.19,0,0,1-1.84-.8A3.66,3.66,0,0,1,185.65,83.62Z"/><path class="cls-4" d="M194.18,84.36a2.08,2.08,0,0,1,.42-1.29,2.66,2.66,0,0,1,1.17-.85,4.5,4.5,0,0,1,1.71-.3,7.65,7.65,0,0,1,1.06.07,4.21,4.21,0,0,1,1,.24v-.49a1.61,1.61,0,0,0-.49-1.25A2,2,0,0,0,197.6,80a3.2,3.2,0,0,0-1.23.23,7.3,7.3,0,0,0-1.23.64l-.54-1.1a6.34,6.34,0,0,1,1.54-.77,5.57,5.57,0,0,1,1.64-.25,3.5,3.5,0,0,1,2.45.81,3,3,0,0,1,.9,2.31v2.86a.6.6,0,0,0,.1.4.46.46,0,0,0,.33.13v1.3l-.4.06h-.3a1.09,1.09,0,0,1-.78-.25,1,1,0,0,1-.31-.59l-.05-.44a3.22,3.22,0,0,1-1.29,1,3.75,3.75,0,0,1-1.58.36,2.93,2.93,0,0,1-1.38-.32,2.33,2.33,0,0,1-.95-.86A2.19,2.19,0,0,1,194.18,84.36Zm4.93.46a1.92,1.92,0,0,0,.29-.38.71.71,0,0,0,.1-.33v-.88a4.31,4.31,0,0,0-.87-.24,5.69,5.69,0,0,0-.91-.08,2.69,2.69,0,0,0-1.44.35,1.08,1.08,0,0,0-.56,1,1.14,1.14,0,0,0,.19.64,1.35,1.35,0,0,0,.53.5,1.75,1.75,0,0,0,.87.19,2.59,2.59,0,0,0,1-.21A2.05,2.05,0,0,0,199.11,84.82Z"/><path class="cls-4" d="M203.12,75.78h1.63v8.61c0,.4.05.65.17.76a.64.64,0,0,0,.45.16,2.44,2.44,0,0,0,.55-.06,2.26,2.26,0,0,0,.46-.15l.23,1.29a4.65,4.65,0,0,1-.84.26,5,5,0,0,1-.88.1,1.79,1.79,0,0,1-1.3-.47,1.72,1.72,0,0,1-.47-1.3Z"/><path class="cls-4" d="M207.58,75.78h1.63v8.61c0,.4,0,.65.17.76a.64.64,0,0,0,.45.16,2.44,2.44,0,0,0,.55-.06,2,2,0,0,0,.45-.15l.24,1.29a4.92,4.92,0,0,1-.84.26,5,5,0,0,1-.88.1,1.79,1.79,0,0,1-1.3-.47,1.72,1.72,0,0,1-.47-1.3Z"/><path class="cls-4" d="M212,88.42l.44.07a2.88,2.88,0,0,0,.35,0,.62.62,0,0,0,.43-.16,1.58,1.58,0,0,0,.38-.56c.13-.28.29-.67.48-1.19l-3.19-7.71h1.7L214.92,85,217,78.91h1.57l-3.51,9.49a2.58,2.58,0,0,1-.48.79,2.12,2.12,0,0,1-.77.57,2.54,2.54,0,0,1-1.08.2l-.37,0-.43-.08Z"/><path class="cls-4" d="M154.08,104.38V93.86h4.41a2.87,2.87,0,0,1,1.31.3,3.42,3.42,0,0,1,1,.78,3.42,3.42,0,0,1,.92,2.34,3.72,3.72,0,0,1-.39,1.67,3.21,3.21,0,0,1-1.11,1.28,2.88,2.88,0,0,1-1.67.49h-2.84v3.66Zm1.66-5.13h2.74a1.4,1.4,0,0,0,.83-.25,1.7,1.7,0,0,0,.55-.71,2.31,2.31,0,0,0,.2-1,2.25,2.25,0,0,0-.23-1,1.89,1.89,0,0,0-.62-.69,1.48,1.48,0,0,0-.82-.24h-2.65Z"/><path class="cls-4" d="M166.44,104.53a4.08,4.08,0,0,1-1.65-.32,3.8,3.8,0,0,1-1.25-.87,4,4,0,0,1-1.09-2.79,4.12,4.12,0,0,1,.28-1.53,3.93,3.93,0,0,1,.81-1.27,3.86,3.86,0,0,1,1.26-.86,4.34,4.34,0,0,1,3.27,0,3.86,3.86,0,0,1,1.26.86,3.93,3.93,0,0,1,.81,1.27,4.12,4.12,0,0,1,.28,1.53,4,4,0,0,1-1.09,2.79,3.74,3.74,0,0,1-1.26.87A4.09,4.09,0,0,1,166.44,104.53Zm-2.32-4a2.73,2.73,0,0,0,.32,1.31,2.31,2.31,0,0,0,.83.92,2.11,2.11,0,0,0,1.17.34,2.08,2.08,0,0,0,1.16-.35,2.52,2.52,0,0,0,.84-.93,2.87,2.87,0,0,0,.31-1.31,2.81,2.81,0,0,0-.31-1.31,2.52,2.52,0,0,0-.84-.93,2.07,2.07,0,0,0-1.16-.34,2,2,0,0,0-1.17.35,2.46,2.46,0,0,0-.83.92A2.75,2.75,0,0,0,164.12,100.57Z"/><path class="cls-4" d="M174.63,104.53a5.41,5.41,0,0,1-1.85-.32,4,4,0,0,1-1.5-.95l.61-1.1a4.66,4.66,0,0,0,1.34.86,3.58,3.58,0,0,0,1.34.26,2.15,2.15,0,0,0,1.11-.25.81.81,0,0,0,.43-.75.65.65,0,0,0-.22-.54,2,2,0,0,0-.65-.31l-1-.29a10.08,10.08,0,0,1-1.39-.52A2.19,2.19,0,0,1,172,100a1.68,1.68,0,0,1-.28-1,2.09,2.09,0,0,1,.39-1.28,2.4,2.4,0,0,1,1.07-.81,4.34,4.34,0,0,1,1.59-.28,4.66,4.66,0,0,1,1.57.26,3.25,3.25,0,0,1,1.26.81l-.69,1.08a3.89,3.89,0,0,0-1.06-.7,3.2,3.2,0,0,0-1.17-.22,3.08,3.08,0,0,0-.68.08,1.1,1.1,0,0,0-.54.3.8.8,0,0,0-.21.59.76.76,0,0,0,.17.5,1.38,1.38,0,0,0,.54.32c.24.09.53.19.87.29.6.18,1.12.35,1.54.52a2.46,2.46,0,0,1,1,.66,1.66,1.66,0,0,1,.35,1.11,2.05,2.05,0,0,1-.84,1.74A3.68,3.68,0,0,1,174.63,104.53Z"/><path class="cls-4" d="M179.15,95.36v-1.8h1.63v1.8Zm0,9V96.63h1.63v7.75Z"/><path class="cls-4" d="M187.05,104c-.14.07-.32.14-.52.22a5,5,0,0,1-.71.21,3.57,3.57,0,0,1-.8.09,2.42,2.42,0,0,1-.94-.18,1.52,1.52,0,0,1-.69-.57,1.8,1.8,0,0,1-.26-1V98h-1V96.69h1V94.14h1.63v2.55h1.69V98h-1.69v4.3a.82.82,0,0,0,.26.59.87.87,0,0,0,.57.19,1.84,1.84,0,0,0,.66-.12,4.1,4.1,0,0,0,.46-.19Z"/><path class="cls-4" d="M188.17,95.36v-1.8h1.63v1.8Zm0,9V96.63h1.63v7.75Z"/><path class="cls-4" d="M193.92,104.38,191,96.69h1.69l2.21,6.19,2.21-6.19h1.57l-3,7.69Z"/><path class="cls-4" d="M203.06,104.53a4.09,4.09,0,0,1-1.63-.32,4,4,0,0,1-1.27-.86,3.8,3.8,0,0,1-.82-1.27,3.88,3.88,0,0,1-.29-1.52,4.08,4.08,0,0,1,.5-2A4,4,0,0,1,201,97.12a4.05,4.05,0,0,1,2.12-.55,3.78,3.78,0,0,1,3.47,2,4,4,0,0,1,.49,1.92,3.25,3.25,0,0,1,0,.33c0,.1,0,.19,0,.26h-6.21a2.35,2.35,0,0,0,.38,1.17,2.38,2.38,0,0,0,.85.79,2.3,2.3,0,0,0,1.11.29,2.48,2.48,0,0,0,1.24-.33,1.64,1.64,0,0,0,.79-.86l1.4.4a3,3,0,0,1-.77,1,3.78,3.78,0,0,1-1.2.71A4.41,4.41,0,0,1,203.06,104.53ZM200.74,100h4.68a2.35,2.35,0,0,0-.38-1.16,2.41,2.41,0,0,0-.84-.78,2.3,2.3,0,0,0-1.14-.29,2.24,2.24,0,0,0-1.11.29,2.33,2.33,0,0,0-1.21,1.94Z"/><path class="cls-4" d="M211.61,99.25a7.53,7.53,0,0,1,.63-3,28.23,28.23,0,0,1,1.52-3l1.26.53a8.35,8.35,0,0,0-.58,1,13.83,13.83,0,0,0-.62,1.38,12.26,12.26,0,0,0-.49,1.56,6.44,6.44,0,0,0-.19,1.55,7.12,7.12,0,0,0,.5,2.49,16.34,16.34,0,0,0,1.34,2.68l-1.19.61a20.52,20.52,0,0,1-1.12-1.9,10.09,10.09,0,0,1-.77-2A7.17,7.17,0,0,1,211.61,99.25Z"/><path class="cls-4" d="M222.06,102.91v1.47H216.4v-1.47h2.1V97.74a1.51,1.51,0,0,1-.41.37,6.16,6.16,0,0,1-.63.37,4.71,4.71,0,0,1-.71.27,2.24,2.24,0,0,1-.65.1V97.33a1.61,1.61,0,0,0,.68-.18,7.31,7.31,0,0,0,.77-.42,6.26,6.26,0,0,0,.64-.48,1.18,1.18,0,0,0,.31-.33h1.68v7Z"/><path class="cls-4" d="M226.22,99.25a7.16,7.16,0,0,1-.28,2,10.77,10.77,0,0,1-.77,2,20.4,20.4,0,0,1-1.11,1.9l-1.2-.61a17.18,17.18,0,0,0,1.34-2.68,6.92,6.92,0,0,0,.51-2.49,6.44,6.44,0,0,0-.19-1.55,12.31,12.31,0,0,0-.5-1.56c-.2-.5-.41-1-.62-1.38a10.14,10.14,0,0,0-.57-1l1.24-.53a23.64,23.64,0,0,1,1.53,3A7.51,7.51,0,0,1,226.22,99.25Z"/><path d="M149.59,138.07h-3.37v8.73h-2v-8.73h-3.36v-1.79h8.76Z"/><path d="M154.58,140.75a3.63,3.63,0,0,0-1.61.35,2.13,2.13,0,0,0-1,1v4.7h-2v-7.69h1.82v1.58a3.65,3.65,0,0,1,1.05-1.26,2.63,2.63,0,0,1,1.35-.5h.4Z"/><path d="M155.62,143.92v-4.81h2v4.38a2.22,2.22,0,0,0,.33,1.32,1.12,1.12,0,0,0,1,.45,1.93,1.93,0,0,0,.77-.16,2.16,2.16,0,0,0,.69-.45,2.42,2.42,0,0,0,.54-.77v-4.77h2v5.47a.71.71,0,0,0,.11.44.53.53,0,0,0,.36.16v1.62l-.49.06-.37,0a1.37,1.37,0,0,1-.86-.25,1,1,0,0,1-.4-.66l0-.62a3.42,3.42,0,0,1-1.33,1.18,4,4,0,0,1-1.8.41,2.22,2.22,0,0,1-1.82-.77A3.58,3.58,0,0,1,155.62,143.92Z"/><path d="M168.45,147a4.39,4.39,0,0,1-1.69-.32,3.79,3.79,0,0,1-2.11-2.12,4.17,4.17,0,0,1,.21-3.51,3.69,3.69,0,0,1,1.42-1.46,4.19,4.19,0,0,1,2.19-.55,4.07,4.07,0,0,1,2.17.55A3.72,3.72,0,0,1,172,141a4.08,4.08,0,0,1,.48,1.95c0,.11,0,.23,0,.36s0,.22,0,.3h-6a2.13,2.13,0,0,0,.34,1,2,2,0,0,0,.74.66,2.19,2.19,0,0,0,1,.22,2.3,2.3,0,0,0,1.12-.28,1.57,1.57,0,0,0,.72-.77l1.71.48a3.37,3.37,0,0,1-.81,1.05,4.08,4.08,0,0,1-1.24.72A4.62,4.62,0,0,1,168.45,147Zm-2-4.61h4.06a2.32,2.32,0,0,0-.33-1,1.9,1.9,0,0,0-.72-.66,2.07,2.07,0,0,0-1-.24,2,2,0,0,0-1,.24,1.9,1.9,0,0,0-.72.66A2.32,2.32,0,0,0,166.42,142.34Z"/><path d="M177.47,146.8V136.28h4.46a3.13,3.13,0,0,1,1.34.29,3.62,3.62,0,0,1,1.06.8,3.89,3.89,0,0,1,.7,1.13,3.34,3.34,0,0,1,.25,1.27,3.55,3.55,0,0,1-.41,1.69,3.62,3.62,0,0,1-1.14,1.31,3,3,0,0,1-1.72.5h-2.49v3.53Zm2.05-5.32h2.37a1.13,1.13,0,0,0,.67-.21,1.52,1.52,0,0,0,.47-.6,2.13,2.13,0,0,0,.18-.9,2.06,2.06,0,0,0-.2-.93,1.41,1.41,0,0,0-.52-.58,1.28,1.28,0,0,0-.69-.19h-2.28Z"/><path d="M189.94,147a4.42,4.42,0,0,1-1.71-.32,3.73,3.73,0,0,1-1.28-.87,4,4,0,0,1-.81-1.28,4.2,4.2,0,0,1-.28-1.5,4.33,4.33,0,0,1,.28-1.53,3.93,3.93,0,0,1,.81-1.27,3.62,3.62,0,0,1,1.28-.88,4.42,4.42,0,0,1,1.71-.31,4.32,4.32,0,0,1,1.69.31,3.84,3.84,0,0,1,2.09,2.15A4.33,4.33,0,0,1,194,143a4.2,4.2,0,0,1-.28,1.5,3.79,3.79,0,0,1-.8,1.28,3.73,3.73,0,0,1-1.28.87A4.37,4.37,0,0,1,189.94,147Zm-2-4a2.64,2.64,0,0,0,.26,1.19,2.12,2.12,0,0,0,.73.81,1.94,1.94,0,0,0,1,.29,1.84,1.84,0,0,0,1-.3,2.2,2.2,0,0,0,.73-.81,2.65,2.65,0,0,0,0-2.37A2.05,2.05,0,0,0,191,141a1.92,1.92,0,0,0-1-.29,1.86,1.86,0,0,0-1,.3,2,2,0,0,0-.73.81A2.63,2.63,0,0,0,187.91,143Z"/><path d="M198.19,147a5.5,5.5,0,0,1-1.9-.33,4.32,4.32,0,0,1-1.55-1l.71-1.29a5.45,5.45,0,0,0,1.37.83,3.45,3.45,0,0,0,1.29.26,1.78,1.78,0,0,0,.93-.2.65.65,0,0,0,.35-.6.54.54,0,0,0-.19-.43,2,2,0,0,0-.56-.27l-.88-.26q-.85-.28-1.44-.54a2.14,2.14,0,0,1-.86-.67,1.67,1.67,0,0,1-.29-1,2.21,2.21,0,0,1,.39-1.31,2.57,2.57,0,0,1,1.1-.85,4,4,0,0,1,1.65-.31,4.83,4.83,0,0,1,1.57.26,3.72,3.72,0,0,1,1.35.84l-.8,1.26a4.64,4.64,0,0,0-1.13-.68,3,3,0,0,0-1.08-.21,2.27,2.27,0,0,0-.59.07,1,1,0,0,0-.44.24.64.64,0,0,0-.17.47.58.58,0,0,0,.15.43,1.21,1.21,0,0,0,.48.27l.78.27a11.33,11.33,0,0,1,1.57.54,2.45,2.45,0,0,1,1,.67,1.7,1.7,0,0,1,.33,1.1,2.1,2.1,0,0,1-.84,1.78A3.66,3.66,0,0,1,198.19,147Z"/><path d="M202.65,138v-2h2v2Zm0,8.85V139h2v7.77Z"/><path d="M211.08,146.41l-.61.24a4.22,4.22,0,0,1-.76.21,3.81,3.81,0,0,1-.82.09,2.75,2.75,0,0,1-1-.19,1.62,1.62,0,0,1-.73-.61,1.93,1.93,0,0,1-.28-1.1v-4.42h-1v-1.52h1v-2.52h2v2.52h1.63v1.52h-1.63v3.75a.75.75,0,0,0,.22.57.81.81,0,0,0,.52.17,1.81,1.81,0,0,0,.61-.1l.47-.18Z"/><path d="M212.12,138v-2h2v2Zm0,8.85V139h2v7.77Z"/><path d="M218,146.8l-2.86-7.69h2.06l2,5.9,2-5.9H223l-2.84,7.69Z"/><path d="M227.38,147a4.35,4.35,0,0,1-1.69-.32,4,4,0,0,1-1.29-.86,4,4,0,0,1-1.11-2.77,4,4,0,0,1,.5-2,3.69,3.69,0,0,1,1.42-1.46,4.15,4.15,0,0,1,2.18-.55,4.08,4.08,0,0,1,2.18.55A3.79,3.79,0,0,1,231,141a4.08,4.08,0,0,1,.48,1.95c0,.11,0,.23,0,.36s0,.22,0,.3h-6a2.26,2.26,0,0,0,.35,1,1.88,1.88,0,0,0,.74.66,2.15,2.15,0,0,0,1,.22,2.3,2.3,0,0,0,1.12-.28,1.57,1.57,0,0,0,.72-.77l1.7.48a3.19,3.19,0,0,1-.8,1.05,4.21,4.21,0,0,1-1.24.72A4.66,4.66,0,0,1,227.38,147Zm-2-4.61h4.06a2.32,2.32,0,0,0-.33-1,2,2,0,0,0-.72-.66,2.08,2.08,0,0,0-1-.24,2,2,0,0,0-1,.24,1.87,1.87,0,0,0-.71.66A2.32,2.32,0,0,0,225.35,142.34Z"/><path d="M235.51,147a5.45,5.45,0,0,1-1.89-.33,4.36,4.36,0,0,1-1.56-1l.71-1.29a5.63,5.63,0,0,0,1.37.83,3.46,3.46,0,0,0,1.3.26,1.81,1.81,0,0,0,.93-.2.64.64,0,0,0,.34-.6.51.51,0,0,0-.19-.43A1.87,1.87,0,0,0,236,144l-.89-.26c-.57-.19-1.05-.37-1.43-.54a2.11,2.11,0,0,1-.87-.67,1.74,1.74,0,0,1-.29-1,2.21,2.21,0,0,1,.39-1.31,2.63,2.63,0,0,1,1.1-.85,4,4,0,0,1,1.65-.31,4.74,4.74,0,0,1,1.57.26,3.56,3.56,0,0,1,1.35.84l-.8,1.26a4.46,4.46,0,0,0-1.13-.68,2.88,2.88,0,0,0-1.08-.21,2.2,2.2,0,0,0-.58.07,1.08,1.08,0,0,0-.45.24.64.64,0,0,0-.17.47.54.54,0,0,0,.16.43,1.1,1.1,0,0,0,.47.27l.78.27a11.51,11.51,0,0,1,1.58.54,2.52,2.52,0,0,1,1,.67,1.69,1.69,0,0,1,.32,1.1,2.1,2.1,0,0,1-.84,1.78A3.64,3.64,0,0,1,235.51,147Z"/><path d="M172.89,159.44a7.53,7.53,0,0,1,.64-3,23.6,23.6,0,0,1,1.57-3.08l1.51.64q-.23.36-.54,1a14.88,14.88,0,0,0-.63,1.37,12.09,12.09,0,0,0-.5,1.58,6.28,6.28,0,0,0,.31,4.05,20,20,0,0,0,1.31,2.68l-1.45.72c-.4-.62-.78-1.26-1.12-1.91a10.31,10.31,0,0,1-.8-2A7.1,7.1,0,0,1,172.89,159.44Z"/><path d="M186,155.85h-3.37v8.73h-2v-8.73h-3.36v-1.79H186Z"/><path d="M187.32,164.58V154.06h4.46a3.08,3.08,0,0,1,1.33.29,3.49,3.49,0,0,1,1.06.8,3.84,3.84,0,0,1,.71,1.13,3.35,3.35,0,0,1,.25,1.28,3.55,3.55,0,0,1-.42,1.68,3.44,3.44,0,0,1-1.14,1.31,3,3,0,0,1-1.72.5h-2.48v3.53Zm2.05-5.32h2.37a1.1,1.1,0,0,0,.66-.21,1.46,1.46,0,0,0,.48-.6,2.11,2.11,0,0,0,.18-.89,2,2,0,0,0-.21-.94,1.39,1.39,0,0,0-.51-.58,1.43,1.43,0,0,0-.69-.19h-2.28Z"/><path d="M199.17,164.73a5.45,5.45,0,0,1-1.89-.33,4.36,4.36,0,0,1-1.56-1l.71-1.29a5.63,5.63,0,0,0,1.37.83,3.52,3.52,0,0,0,1.3.27A1.8,1.8,0,0,0,200,163a.64.64,0,0,0,.34-.6.53.53,0,0,0-.19-.43,1.87,1.87,0,0,0-.55-.27l-.89-.26c-.57-.19-1.05-.37-1.43-.54a2.11,2.11,0,0,1-.87-.67,1.74,1.74,0,0,1-.29-1,2.21,2.21,0,0,1,.39-1.31,2.63,2.63,0,0,1,1.1-.85,4,4,0,0,1,1.65-.31,4.74,4.74,0,0,1,1.57.26,3.56,3.56,0,0,1,1.35.84l-.8,1.26a4.6,4.6,0,0,0-1.12-.68,3,3,0,0,0-1.09-.21,2.2,2.2,0,0,0-.58.07,1.08,1.08,0,0,0-.45.24.64.64,0,0,0-.17.47.58.58,0,0,0,.16.43,1.1,1.1,0,0,0,.47.27l.78.27a11.51,11.51,0,0,1,1.58.54,2.52,2.52,0,0,1,1,.67,1.71,1.71,0,0,1,.33,1.11,2.14,2.14,0,0,1-.85,1.78A3.71,3.71,0,0,1,199.17,164.73Z"/><path d="M206.81,159.44a7.1,7.1,0,0,1-.3,2,11.76,11.76,0,0,1-.8,2,19.53,19.53,0,0,1-1.13,1.91l-1.45-.72a18.92,18.92,0,0,0,1.32-2.68,6.73,6.73,0,0,0,.5-2.48,6.26,6.26,0,0,0-.2-1.57,12.09,12.09,0,0,0-.5-1.58,15,15,0,0,0-.62-1.37c-.2-.4-.39-.72-.54-1l1.52-.64a27.89,27.89,0,0,1,1.56,3.08A7.71,7.71,0,0,1,206.81,159.44Z"/><path d="M134.82,226.28V215.76h7.07v1.8h-5v2.71h4.18v1.66h-4.18v4.35Z"/><path d="M142,224a2.12,2.12,0,0,1,.43-1.31,2.71,2.71,0,0,1,1.17-.88,4.74,4.74,0,0,1,1.74-.3,6.69,6.69,0,0,1,1,.07,3.4,3.4,0,0,1,.88.24v-.42a1.45,1.45,0,0,0-.44-1.12,1.91,1.91,0,0,0-1.3-.39,3.51,3.51,0,0,0-1.21.22,6.16,6.16,0,0,0-1.22.66l-.64-1.31a6.32,6.32,0,0,1,1.58-.75,5.65,5.65,0,0,1,1.7-.26,3.81,3.81,0,0,1,2.59.82,3,3,0,0,1,.92,2.34v2.44a.73.73,0,0,0,.11.44.61.61,0,0,0,.37.16v1.61l-.49.08-.36,0a1.34,1.34,0,0,1-.9-.27,1.13,1.13,0,0,1-.37-.65l0-.4a3.38,3.38,0,0,1-1.26,1,3.64,3.64,0,0,1-1.54.35,3,3,0,0,1-1.38-.31,2.41,2.41,0,0,1-1-.87A2.26,2.26,0,0,1,142,224Zm4.84.38a2.11,2.11,0,0,0,.26-.35.61.61,0,0,0,.11-.31V223a4.58,4.58,0,0,0-.77-.22,3.71,3.71,0,0,0-.79-.08,2.34,2.34,0,0,0-1.27.32,1,1,0,0,0-.33,1.41,1.2,1.2,0,0,0,.47.42,1.58,1.58,0,0,0,.74.16,2.46,2.46,0,0,0,.88-.17A2.06,2.06,0,0,0,146.8,224.4Z"/><path d="M151,215.47h2v8.35a1,1,0,0,0,.18.72.63.63,0,0,0,.49.19,2.12,2.12,0,0,0,.49-.06,2.05,2.05,0,0,0,.44-.15l.27,1.51a3.91,3.91,0,0,1-.93.3,5.07,5.07,0,0,1-1,.1,1.94,1.94,0,0,1-1.44-.5,1.88,1.88,0,0,1-.51-1.42Z"/><path d="M158.56,226.43a5.79,5.79,0,0,1-1.9-.32,4.2,4.2,0,0,1-1.55-1l.71-1.29a5.17,5.17,0,0,0,1.37.83,3.48,3.48,0,0,0,1.3.27,1.87,1.87,0,0,0,.92-.2.65.65,0,0,0,.35-.6.5.5,0,0,0-.19-.43,2,2,0,0,0-.56-.27l-.88-.27a12.4,12.4,0,0,1-1.44-.54,2,2,0,0,1-.86-.66,1.67,1.67,0,0,1-.29-1,2.18,2.18,0,0,1,.39-1.31,2.59,2.59,0,0,1,1.1-.86,4.19,4.19,0,0,1,1.65-.31,4.83,4.83,0,0,1,1.57.26,4,4,0,0,1,1.35.84l-.8,1.26a4.57,4.57,0,0,0-1.13-.67,2.75,2.75,0,0,0-1.08-.22,2.8,2.8,0,0,0-.59.07,1,1,0,0,0-.44.24.67.67,0,0,0-.17.48.59.59,0,0,0,.15.43,1.52,1.52,0,0,0,.48.27l.78.26a14.78,14.78,0,0,1,1.57.54,2.58,2.58,0,0,1,1,.68,1.73,1.73,0,0,1,.32,1.1,2.12,2.12,0,0,1-.84,1.78A3.66,3.66,0,0,1,158.56,226.43Z"/><path d="M166.62,226.43a4.39,4.39,0,0,1-1.69-.31,3.86,3.86,0,0,1-1.29-.87,3.81,3.81,0,0,1-.82-1.26,4,4,0,0,1-.29-1.5,4.16,4.16,0,0,1,.5-2,3.82,3.82,0,0,1,1.42-1.46,4.29,4.29,0,0,1,2.19-.55,4.16,4.16,0,0,1,2.17.55,3.74,3.74,0,0,1,1.39,1.46,4.07,4.07,0,0,1,.48,1.94c0,.12,0,.24,0,.36s0,.22,0,.3h-6a2.25,2.25,0,0,0,.35,1,1.84,1.84,0,0,0,.74.65,2.16,2.16,0,0,0,1,.23,2.31,2.31,0,0,0,1.12-.29,1.55,1.55,0,0,0,.72-.76l1.71.47a3.16,3.16,0,0,1-.81,1,3.71,3.71,0,0,1-1.24.72A4.62,4.62,0,0,1,166.62,226.43Zm-2-4.61h4.06a2.28,2.28,0,0,0-.33-1,2,2,0,0,0-.72-.67,2.07,2.07,0,0,0-1-.24,2,2,0,0,0-1,.24,2,2,0,0,0-.71.67A2.28,2.28,0,0,0,164.59,221.82Z"/><path d="M177.69,219.53v6.75h-2.05V215.76h1.63l5.44,6.94v-6.92h2v10.5h-1.71Z"/><path d="M190.22,226.43a4.3,4.3,0,0,1-1.68-.31,3.67,3.67,0,0,1-1.29-.87,3.84,3.84,0,0,1-.83-1.26,4,4,0,0,1-.29-1.5,4.16,4.16,0,0,1,.5-2,3.9,3.9,0,0,1,1.42-1.46,4.29,4.29,0,0,1,2.19-.55,4.2,4.2,0,0,1,2.18.55,3.79,3.79,0,0,1,1.38,1.46,4.07,4.07,0,0,1,.48,1.94c0,.12,0,.24,0,.36s0,.22,0,.3h-6a2.14,2.14,0,0,0,.35,1,1.78,1.78,0,0,0,.74.65,2.13,2.13,0,0,0,1,.23,2.34,2.34,0,0,0,1.12-.29,1.55,1.55,0,0,0,.72-.76l1.7.47a3.16,3.16,0,0,1-.81,1,3.71,3.71,0,0,1-1.24.72A4.57,4.57,0,0,1,190.22,226.43Zm-2-4.61h4.06a2.28,2.28,0,0,0-.33-1,1.86,1.86,0,0,0-.72-.67,2,2,0,0,0-1-.24,2,2,0,0,0-1,.24,1.9,1.9,0,0,0-.71.67A2.17,2.17,0,0,0,188.19,221.82Z"/><path d="M198.54,226.43a3.19,3.19,0,0,1-2.53-1.16,3.91,3.91,0,0,1-.72-1.26,4.43,4.43,0,0,1-.25-1.51,4.52,4.52,0,0,1,.27-1.58,4,4,0,0,1,.74-1.28,3.41,3.41,0,0,1,2.61-1.17,3.12,3.12,0,0,1,1.58.4,3.46,3.46,0,0,1,1.13,1.09v-1.37h1.73v7.35a3.33,3.33,0,0,1-.56,2,3.51,3.51,0,0,1-1.53,1.25,5.4,5.4,0,0,1-2.22.44,5,5,0,0,1-2.14-.42,4.32,4.32,0,0,1-1.49-1.2l1.08-1.05a3.09,3.09,0,0,0,1.12.86,3.32,3.32,0,0,0,1.43.31,3.11,3.11,0,0,0,1.16-.21,2,2,0,0,0,.85-.67,2.06,2.06,0,0,0,.31-1.19v-1a2.56,2.56,0,0,1-1.08,1A3.24,3.24,0,0,1,198.54,226.43Zm.66-1.58a1.9,1.9,0,0,0,.63-.11,2.13,2.13,0,0,0,.54-.28,2.24,2.24,0,0,0,.45-.42,1.85,1.85,0,0,0,.29-.5v-1.86a2.41,2.41,0,0,0-1.2-1.33,2,2,0,0,0-.83-.19,1.72,1.72,0,0,0-.82.2,2,2,0,0,0-.64.54,2.48,2.48,0,0,0-.41.77,3,3,0,0,0-.14.89,2.42,2.42,0,0,0,.16.89,2.36,2.36,0,0,0,.45.73,2.28,2.28,0,0,0,.69.49A2,2,0,0,0,199.2,224.85Z"/><path d="M204.36,224a2.12,2.12,0,0,1,.42-1.31,2.74,2.74,0,0,1,1.18-.88,4.65,4.65,0,0,1,1.73-.3,6.82,6.82,0,0,1,1,.07,3.44,3.44,0,0,1,.87.24v-.42a1.45,1.45,0,0,0-.44-1.12,1.88,1.88,0,0,0-1.29-.39,3.56,3.56,0,0,0-1.22.22,6.1,6.1,0,0,0-1.21.66l-.64-1.31a6.15,6.15,0,0,1,1.58-.75,5.58,5.58,0,0,1,1.69-.26,3.81,3.81,0,0,1,2.59.82,3,3,0,0,1,.93,2.34v2.44a.66.66,0,0,0,.11.44.55.55,0,0,0,.36.16v1.61l-.48.08-.36,0a1.31,1.31,0,0,1-.9-.27,1.14,1.14,0,0,1-.38-.65l0-.4a3.55,3.55,0,0,1-1.26,1,3.71,3.71,0,0,1-1.54.35,3,3,0,0,1-1.39-.31,2.38,2.38,0,0,1-1-.87A2.26,2.26,0,0,1,204.36,224Zm4.83.38a1.73,1.73,0,0,0,.27-.35.59.59,0,0,0,.1-.31V223a4.33,4.33,0,0,0-.77-.22,3.71,3.71,0,0,0-.79-.08,2.31,2.31,0,0,0-1.26.32,1,1,0,0,0-.5.86,1.1,1.1,0,0,0,.16.55,1.16,1.16,0,0,0,.48.42,1.55,1.55,0,0,0,.74.16,2.36,2.36,0,0,0,.87-.17A2.06,2.06,0,0,0,209.19,224.4Z"/><path d="M218,225.9c-.17.07-.37.15-.61.23a4.47,4.47,0,0,1-.76.22,4.67,4.67,0,0,1-.83.08,2.51,2.51,0,0,1-1-.19,1.63,1.63,0,0,1-.74-.61,2,2,0,0,1-.27-1.09v-4.42h-1v-1.53h1v-2.52h2v2.52h1.63v1.53h-1.63v3.74a.72.72,0,0,0,.23.57.77.77,0,0,0,.52.18,1.81,1.81,0,0,0,.6-.11,4.94,4.94,0,0,0,.48-.17Z"/><path d="M219,217.44v-2h2v2Zm0,8.84v-7.76h2v7.76Z"/><path d="M224.88,226.28,222,218.59h2.06l2,5.9,2-5.9h1.88L227,226.28Z"/><path d="M234.28,226.43a4.32,4.32,0,0,1-1.69-.31,3.84,3.84,0,0,1-2.11-2.13,3.78,3.78,0,0,1-.29-1.5,4.15,4.15,0,0,1,.49-2,3.85,3.85,0,0,1,1.43-1.46,4.22,4.22,0,0,1,2.18-.55,4.17,4.17,0,0,1,2.18.55,3.79,3.79,0,0,1,1.38,1.46,4,4,0,0,1,.49,1.94c0,.12,0,.24,0,.36s0,.22,0,.3h-6a2.25,2.25,0,0,0,.35,1,1.78,1.78,0,0,0,.74.65,2.13,2.13,0,0,0,1,.23,2.31,2.31,0,0,0,1.12-.29,1.55,1.55,0,0,0,.72-.76l1.7.47a3.16,3.16,0,0,1-.81,1,3.76,3.76,0,0,1-1.23.72A4.66,4.66,0,0,1,234.28,226.43Zm-2-4.61h4.06a2.17,2.17,0,0,0-.34-1,1.86,1.86,0,0,0-.72-.67,2,2,0,0,0-1-.24,2,2,0,0,0-1,.24,1.9,1.9,0,0,0-.71.67A2.28,2.28,0,0,0,232.25,221.82Z"/><path d="M242.41,226.43a5.79,5.79,0,0,1-1.9-.32,4.2,4.2,0,0,1-1.55-1l.71-1.29a5.17,5.17,0,0,0,1.37.83,3.48,3.48,0,0,0,1.3.27,1.87,1.87,0,0,0,.92-.2.63.63,0,0,0,.35-.6.5.5,0,0,0-.19-.43,2,2,0,0,0-.56-.27l-.88-.27a12.4,12.4,0,0,1-1.44-.54,2,2,0,0,1-.86-.66,1.67,1.67,0,0,1-.29-1,2.18,2.18,0,0,1,.39-1.31,2.59,2.59,0,0,1,1.1-.86,4.19,4.19,0,0,1,1.65-.31,4.79,4.79,0,0,1,1.57.26,4,4,0,0,1,1.35.84l-.8,1.26a4.57,4.57,0,0,0-1.13-.67,2.71,2.71,0,0,0-1.08-.22,2.63,2.63,0,0,0-.58.07,1,1,0,0,0-.45.24.67.67,0,0,0-.17.48.56.56,0,0,0,.16.43,1.35,1.35,0,0,0,.47.27l.78.26a15,15,0,0,1,1.58.54,2.53,2.53,0,0,1,1,.68,1.73,1.73,0,0,1,.32,1.1,2.12,2.12,0,0,1-.84,1.78A3.64,3.64,0,0,1,242.41,226.43Z"/><path d="M172.24,238.92a7.71,7.71,0,0,1,.64-3,26.27,26.27,0,0,1,1.57-3.07l1.51.63c-.15.24-.33.56-.54,1a13.82,13.82,0,0,0-.62,1.37,11.63,11.63,0,0,0-.5,1.58,6.2,6.2,0,0,0-.2,1.57,6.79,6.79,0,0,0,.51,2.48,19.85,19.85,0,0,0,1.31,2.67l-1.45.73a21.64,21.64,0,0,1-1.12-1.91,11,11,0,0,1-.81-2A7.17,7.17,0,0,1,172.24,238.92Z"/><path d="M177.43,244.06V233.54h7.07v1.8h-5v2.71h4.18v1.66h-4.18v4.35Z"/><path d="M188,237.31v6.75h-2V233.54h1.63l5.43,6.94v-6.92h2.05v10.5h-1.71Z"/><path d="M199.82,244.21a5.74,5.74,0,0,1-1.9-.32,4.2,4.2,0,0,1-1.55-1l.71-1.29a4.92,4.92,0,0,0,1.37.83,3.47,3.47,0,0,0,1.29.27,1.89,1.89,0,0,0,.93-.2.65.65,0,0,0,.35-.6.54.54,0,0,0-.19-.43,2,2,0,0,0-.56-.27c-.24-.08-.54-.17-.88-.26a14.34,14.34,0,0,1-1.44-.55,2.14,2.14,0,0,1-.87-.66,1.74,1.74,0,0,1-.28-1,2.18,2.18,0,0,1,.39-1.31,2.59,2.59,0,0,1,1.1-.86,4.16,4.16,0,0,1,1.65-.3,4.83,4.83,0,0,1,1.57.25,4,4,0,0,1,1.35.84l-.8,1.26a4.91,4.91,0,0,0-1.13-.67,2.78,2.78,0,0,0-1.08-.22,2.27,2.27,0,0,0-.59.08.83.83,0,0,0-.44.24.64.64,0,0,0-.17.47.58.58,0,0,0,.15.43,1.52,1.52,0,0,0,.48.27c.21.08.47.17.78.26a14.78,14.78,0,0,1,1.57.54,2.46,2.46,0,0,1,1,.68,1.7,1.7,0,0,1,.33,1.1,2.12,2.12,0,0,1-.84,1.78A3.66,3.66,0,0,1,199.82,244.21Z"/><path d="M207.45,238.92a7.17,7.17,0,0,1-.3,2,10.31,10.31,0,0,1-.8,2,19.43,19.43,0,0,1-1.12,1.91l-1.46-.73a16.9,16.9,0,0,0,1.32-2.67,6.79,6.79,0,0,0,.51-2.48,6.69,6.69,0,0,0-.2-1.57,11.66,11.66,0,0,0-.51-1.58,13.89,13.89,0,0,0-.61-1.37,10.14,10.14,0,0,0-.55-1l1.53-.63a26,26,0,0,1,1.55,3.07A7.53,7.53,0,0,1,207.45,238.92Z"/><path d="M284.24,146.8V136.28h7.06v1.79h-5v2.71h4.18v1.66h-4.18v4.36Z"/><path d="M291.38,144.53a2.14,2.14,0,0,1,.42-1.31,2.65,2.65,0,0,1,1.18-.87,4.45,4.45,0,0,1,1.73-.31,6.85,6.85,0,0,1,1,.08,3.45,3.45,0,0,1,.87.23v-.41a1.42,1.42,0,0,0-.44-1.12,1.88,1.88,0,0,0-1.29-.39,3.34,3.34,0,0,0-1.22.22,6,6,0,0,0-1.21.65l-.64-1.3a6.19,6.19,0,0,1,1.58-.76,5.58,5.58,0,0,1,1.69-.25,3.76,3.76,0,0,1,2.59.82,2.93,2.93,0,0,1,.93,2.33v2.44a.65.65,0,0,0,.11.44.51.51,0,0,0,.36.16v1.62l-.48.07-.36,0a1.31,1.31,0,0,1-.9-.27,1.11,1.11,0,0,1-.38-.65l0-.4a3.44,3.44,0,0,1-1.26,1,3.58,3.58,0,0,1-1.54.36,3,3,0,0,1-1.39-.32,2.43,2.43,0,0,1-1-.86A2.3,2.3,0,0,1,291.38,144.53Zm4.83.39a2.06,2.06,0,0,0,.27-.35.62.62,0,0,0,.1-.32v-.76a3.64,3.64,0,0,0-.77-.23,4.5,4.5,0,0,0-.79-.08,2.23,2.23,0,0,0-1.26.33,1,1,0,0,0-.5.86,1.12,1.12,0,0,0,.16.55,1.14,1.14,0,0,0,.48.41,1.55,1.55,0,0,0,.74.16,2.35,2.35,0,0,0,.87-.16A2.23,2.23,0,0,0,296.21,144.92Z"/><path d="M300.4,136h2v8.35a1.09,1.09,0,0,0,.18.73.63.63,0,0,0,.48.18,2.05,2.05,0,0,0,.49-.06A2.37,2.37,0,0,0,304,145l.26,1.52a4.08,4.08,0,0,1-.93.29,5,5,0,0,1-1,.11,2,2,0,0,1-1.45-.5,1.9,1.9,0,0,1-.51-1.42Z"/><path d="M308,147a5.45,5.45,0,0,1-1.89-.33,4.45,4.45,0,0,1-1.56-1l.71-1.29a5.63,5.63,0,0,0,1.37.83,3.5,3.5,0,0,0,1.3.26,1.81,1.81,0,0,0,.93-.2.64.64,0,0,0,.34-.6.51.51,0,0,0-.19-.43,1.87,1.87,0,0,0-.55-.27l-.89-.26c-.57-.19-1.05-.37-1.43-.54a2.11,2.11,0,0,1-.87-.67,1.74,1.74,0,0,1-.29-1,2.21,2.21,0,0,1,.39-1.31,2.63,2.63,0,0,1,1.1-.85,4,4,0,0,1,1.65-.31,4.74,4.74,0,0,1,1.57.26,3.56,3.56,0,0,1,1.35.84l-.8,1.26a4.6,4.6,0,0,0-1.12-.68,3,3,0,0,0-1.09-.21,2.2,2.2,0,0,0-.58.07,1.08,1.08,0,0,0-.45.24.64.64,0,0,0-.17.47.58.58,0,0,0,.16.43,1.1,1.1,0,0,0,.47.27l.78.27a11.51,11.51,0,0,1,1.58.54,2.52,2.52,0,0,1,1,.67,1.7,1.7,0,0,1,.33,1.1,2.11,2.11,0,0,1-.85,1.78A3.64,3.64,0,0,1,308,147Z"/><path d="M316,147a4.31,4.31,0,0,1-1.69-.32,3.79,3.79,0,0,1-1.29-.86,4.13,4.13,0,0,1-.62-4.77,3.76,3.76,0,0,1,1.42-1.46,4.19,4.19,0,0,1,2.19-.55,4.11,4.11,0,0,1,2.18.55,3.76,3.76,0,0,1,1.38,1.45,4.08,4.08,0,0,1,.48,1.95c0,.11,0,.23,0,.36s0,.22,0,.3h-6a2.26,2.26,0,0,0,.35,1,1.88,1.88,0,0,0,.74.66,2.13,2.13,0,0,0,1,.22,2.33,2.33,0,0,0,1.12-.28,1.57,1.57,0,0,0,.72-.77l1.7.48a3.37,3.37,0,0,1-.81,1.05,4.15,4.15,0,0,1-1.23.72A4.66,4.66,0,0,1,316,147Zm-2-4.61h4.06a2.2,2.2,0,0,0-.33-1,1.83,1.83,0,0,0-.72-.66,2,2,0,0,0-1-.24,2,2,0,0,0-1,.24,1.87,1.87,0,0,0-.71.66A2.33,2.33,0,0,0,314,142.34Z"/><path d="M325.06,146.8V136.28h4.46a3.08,3.08,0,0,1,1.33.29,3.49,3.49,0,0,1,1.06.8,3.92,3.92,0,0,1,.71,1.13,3.65,3.65,0,0,1-1.31,4.27,3,3,0,0,1-1.72.5H327.1v3.53Zm2-5.32h2.37a1.13,1.13,0,0,0,.67-.21,1.46,1.46,0,0,0,.48-.6,2.29,2.29,0,0,0,.17-.9,1.93,1.93,0,0,0-.2-.93,1.34,1.34,0,0,0-.52-.58,1.28,1.28,0,0,0-.69-.19H327.1Z"/><path d="M337.52,147a4.37,4.37,0,0,1-1.7-.32,3.67,3.67,0,0,1-1.29-.87,3.79,3.79,0,0,1-.8-1.28,4,4,0,0,1-.28-1.5,4.12,4.12,0,0,1,.28-1.53,3.75,3.75,0,0,1,.8-1.27,3.57,3.57,0,0,1,1.29-.88,4.82,4.82,0,0,1,3.4,0,3.8,3.8,0,0,1,1.28.88,3.93,3.93,0,0,1,.81,1.27,4.32,4.32,0,0,1,.27,1.53,4.2,4.2,0,0,1-.27,1.5,4,4,0,0,1-.8,1.28,3.67,3.67,0,0,1-1.29.87A4.37,4.37,0,0,1,337.52,147Zm-2-4a2.52,2.52,0,0,0,.27,1.19,2.09,2.09,0,0,0,.72.81,1.94,1.94,0,0,0,1,.29,1.8,1.8,0,0,0,1-.3,2.23,2.23,0,0,0,.74-.81,2.74,2.74,0,0,0,0-2.37,2.08,2.08,0,0,0-.74-.81,1.95,1.95,0,0,0-2.06,0,2,2,0,0,0-.72.81A2.5,2.5,0,0,0,335.49,143Z"/><path d="M345.77,147a5.45,5.45,0,0,1-1.89-.33,4.36,4.36,0,0,1-1.56-1l.71-1.29a5.63,5.63,0,0,0,1.37.83,3.46,3.46,0,0,0,1.3.26,1.77,1.77,0,0,0,.92-.2.63.63,0,0,0,.35-.6.51.51,0,0,0-.19-.43,1.87,1.87,0,0,0-.55-.27l-.89-.26c-.57-.19-1-.37-1.43-.54a2.11,2.11,0,0,1-.87-.67,1.74,1.74,0,0,1-.29-1,2.21,2.21,0,0,1,.39-1.31,2.63,2.63,0,0,1,1.1-.85,4,4,0,0,1,1.65-.31,4.74,4.74,0,0,1,1.57.26,3.56,3.56,0,0,1,1.35.84l-.8,1.26a4.46,4.46,0,0,0-1.13-.68,2.88,2.88,0,0,0-1.08-.21,2.2,2.2,0,0,0-.58.07,1.08,1.08,0,0,0-.45.24.64.64,0,0,0-.17.47.54.54,0,0,0,.16.43,1.1,1.1,0,0,0,.47.27l.78.27a11.51,11.51,0,0,1,1.58.54,2.52,2.52,0,0,1,1,.67,1.69,1.69,0,0,1,.32,1.1,2.1,2.1,0,0,1-.84,1.78A3.64,3.64,0,0,1,345.77,147Z"/><path d="M350.23,138v-2h2v2Zm0,8.85V139h2v7.77Z"/><path d="M358.66,146.41l-.6.24a4.58,4.58,0,0,1-.77.21,3.75,3.75,0,0,1-.82.09,2.79,2.79,0,0,1-1-.19,1.67,1.67,0,0,1-.73-.61,2,2,0,0,1-.27-1.1v-4.42h-1v-1.52h1v-2.52h2v2.52h1.63v1.52h-1.63v3.75a.79.79,0,0,0,.22.57.81.81,0,0,0,.52.17,1.81,1.81,0,0,0,.61-.1l.47-.18Z"/><path d="M359.7,138v-2h2v2Zm0,8.85V139h2v7.77Z"/><path d="M365.57,146.8l-2.86-7.69h2.06l2,5.9,2-5.9h1.89l-2.85,7.69Z"/><path d="M375,147a4.39,4.39,0,0,1-1.69-.32,3.79,3.79,0,0,1-2.11-2.12,4.17,4.17,0,0,1,.21-3.51,3.69,3.69,0,0,1,1.42-1.46A4.19,4.19,0,0,1,375,139a4.11,4.11,0,0,1,2.18.55,3.76,3.76,0,0,1,1.38,1.45,4.08,4.08,0,0,1,.48,1.95c0,.11,0,.23,0,.36s0,.22,0,.3h-6a2.14,2.14,0,0,0,.35,1,1.81,1.81,0,0,0,.74.66,2.13,2.13,0,0,0,1,.22,2.35,2.35,0,0,0,1.12-.28,1.5,1.5,0,0,0,.71-.77l1.71.48a3.37,3.37,0,0,1-.81,1.05,4.08,4.08,0,0,1-1.24.72A4.57,4.57,0,0,1,375,147Zm-2-4.61H377a2.32,2.32,0,0,0-.33-1,1.83,1.83,0,0,0-.72-.66,2.07,2.07,0,0,0-1-.24,2,2,0,0,0-1,.24,1.87,1.87,0,0,0-.71.66A2.21,2.21,0,0,0,372.93,142.34Z"/><path d="M383.1,147a5.5,5.5,0,0,1-1.9-.33,4.32,4.32,0,0,1-1.55-1l.71-1.29a5.45,5.45,0,0,0,1.37.83,3.45,3.45,0,0,0,1.29.26,1.78,1.78,0,0,0,.93-.2.65.65,0,0,0,.35-.6.54.54,0,0,0-.19-.43,2,2,0,0,0-.56-.27l-.88-.26c-.58-.19-1.05-.37-1.44-.54a2.25,2.25,0,0,1-.87-.67,1.74,1.74,0,0,1-.28-1,2.21,2.21,0,0,1,.39-1.31,2.54,2.54,0,0,1,1.09-.85,4,4,0,0,1,1.66-.31,4.83,4.83,0,0,1,1.57.26,3.6,3.6,0,0,1,1.34.84l-.8,1.26a4.6,4.6,0,0,0-1.12-.68,3,3,0,0,0-1.08-.21,2.22,2.22,0,0,0-.59.07,1,1,0,0,0-.44.24.61.61,0,0,0-.17.47.58.58,0,0,0,.15.43,1.14,1.14,0,0,0,.48.27l.77.27a11.06,11.06,0,0,1,1.58.54,2.45,2.45,0,0,1,1,.67,1.7,1.7,0,0,1,.33,1.1,2.09,2.09,0,0,1-.85,1.78A3.61,3.61,0,0,1,383.1,147Z"/><path d="M318.31,159.44a7.53,7.53,0,0,1,.64-3,23.6,23.6,0,0,1,1.57-3.08L322,154q-.22.36-.54,1a15,15,0,0,0-.62,1.37,12.13,12.13,0,0,0-.51,1.58,6.28,6.28,0,0,0,.31,4.05,20,20,0,0,0,1.31,2.68l-1.45.72c-.4-.62-.78-1.26-1.12-1.91a10.31,10.31,0,0,1-.8-2A7.1,7.1,0,0,1,318.31,159.44Z"/><path d="M323.5,164.58V154.06h7.06v1.79h-5v2.71h4.18v1.66h-4.18v4.36Z"/><path d="M332,164.58V154.06h4.46a3.08,3.08,0,0,1,1.33.29,3.49,3.49,0,0,1,1.06.8,3.84,3.84,0,0,1,.71,1.13,3.35,3.35,0,0,1,.25,1.28,3.55,3.55,0,0,1-.42,1.68,3.44,3.44,0,0,1-1.14,1.31,3,3,0,0,1-1.71.5h-2.49v3.53Zm2.05-5.32h2.37a1.1,1.1,0,0,0,.66-.21,1.46,1.46,0,0,0,.48-.6,2.11,2.11,0,0,0,.18-.89,2.07,2.07,0,0,0-.2-.94A1.48,1.48,0,0,0,337,156a1.43,1.43,0,0,0-.69-.19h-2.28Z"/><path d="M343.85,164.73a5.45,5.45,0,0,1-1.89-.33,4.45,4.45,0,0,1-1.56-1l.71-1.29a5.63,5.63,0,0,0,1.37.83,3.52,3.52,0,0,0,1.3.27,1.8,1.8,0,0,0,.93-.21.64.64,0,0,0,.34-.6.53.53,0,0,0-.19-.43,1.87,1.87,0,0,0-.55-.27l-.89-.26c-.57-.19-1.05-.37-1.43-.54a2.11,2.11,0,0,1-.87-.67,1.74,1.74,0,0,1-.29-1,2.21,2.21,0,0,1,.39-1.31,2.63,2.63,0,0,1,1.1-.85,4,4,0,0,1,1.65-.31,4.74,4.74,0,0,1,1.57.26,3.56,3.56,0,0,1,1.35.84l-.8,1.26a4.6,4.6,0,0,0-1.12-.68,3,3,0,0,0-1.09-.21,2.2,2.2,0,0,0-.58.07,1.08,1.08,0,0,0-.45.24.64.64,0,0,0-.17.47.58.58,0,0,0,.16.43,1.1,1.1,0,0,0,.47.27l.78.27a11.51,11.51,0,0,1,1.58.54,2.52,2.52,0,0,1,1,.67,1.71,1.71,0,0,1,.33,1.11,2.14,2.14,0,0,1-.85,1.78A3.71,3.71,0,0,1,343.85,164.73Z"/><path d="M351.49,159.44a7.1,7.1,0,0,1-.3,2,11.76,11.76,0,0,1-.8,2,19.53,19.53,0,0,1-1.13,1.91l-1.45-.72a18.92,18.92,0,0,0,1.32-2.68,6.94,6.94,0,0,0,.5-2.48,6.26,6.26,0,0,0-.2-1.57,12.09,12.09,0,0,0-.5-1.58,15,15,0,0,0-.62-1.37c-.2-.4-.39-.72-.54-1l1.52-.64a27.89,27.89,0,0,1,1.56,3.08A7.71,7.71,0,0,1,351.49,159.44Z"/><path d="M290.28,217.56h-3.37v8.72h-2v-8.72h-3.36v-1.8h8.76Z"/><path d="M295.27,220.24a3.57,3.57,0,0,0-1.62.35,2.11,2.11,0,0,0-1,1v4.69h-2v-7.69h1.82v1.59a3.65,3.65,0,0,1,1-1.26,2.52,2.52,0,0,1,1.35-.5h.4Z"/><path d="M296.31,223.41v-4.82h2V223a2.23,2.23,0,0,0,.33,1.33,1.12,1.12,0,0,0,1,.44,2,2,0,0,0,.76-.15,2.07,2.07,0,0,0,.7-.46,2.64,2.64,0,0,0,.54-.77v-4.77h2v5.48a.66.66,0,0,0,.11.44.51.51,0,0,0,.36.16v1.61l-.5.07a2.3,2.3,0,0,1-.36,0,1.49,1.49,0,0,1-.87-.24,1,1,0,0,1-.39-.67l0-.61a3.38,3.38,0,0,1-1.34,1.18,4,4,0,0,1-1.79.4,2.18,2.18,0,0,1-1.82-.77A3.47,3.47,0,0,1,296.31,223.41Z"/><path d="M309.14,226.43a4.32,4.32,0,0,1-1.69-.31,3.84,3.84,0,0,1-2.11-2.13,3.78,3.78,0,0,1-.29-1.5,4.15,4.15,0,0,1,.49-2A3.83,3.83,0,0,1,307,219a4.13,4.13,0,0,1,2.18-.55,4.08,4.08,0,0,1,2.18.55,3.79,3.79,0,0,1,1.39,1.45,4.07,4.07,0,0,1,.48,1.94c0,.12,0,.24,0,.36s0,.22,0,.3h-6a2.25,2.25,0,0,0,.35,1,1.88,1.88,0,0,0,.74.66,2.15,2.15,0,0,0,1,.22,2.31,2.31,0,0,0,1.12-.29,1.55,1.55,0,0,0,.72-.76l1.7.47a3,3,0,0,1-.8,1,3.92,3.92,0,0,1-1.24.72A4.42,4.42,0,0,1,309.14,226.43Zm-2-4.61h4.06a2.17,2.17,0,0,0-.34-1,1.9,1.9,0,0,0-.71-.67,2.08,2.08,0,0,0-1-.24,2,2,0,0,0-1,.24,1.9,1.9,0,0,0-.71.67A2.28,2.28,0,0,0,307.11,221.82Z"/><path d="M320.21,219.53v6.75h-2V215.76h1.63l5.44,6.94v-6.92h2v10.5h-1.7Z"/><path d="M332.74,226.43a4.39,4.39,0,0,1-1.69-.31,3.86,3.86,0,0,1-1.29-.87,3.81,3.81,0,0,1-.82-1.26,4,4,0,0,1-.29-1.5,4.16,4.16,0,0,1,.5-2,3.73,3.73,0,0,1,1.42-1.45,4.19,4.19,0,0,1,2.19-.55,4,4,0,0,1,2.17.55,3.65,3.65,0,0,1,1.39,1.45,4.07,4.07,0,0,1,.48,1.94c0,.12,0,.24,0,.36s0,.22,0,.3h-6a2.25,2.25,0,0,0,.34,1,1.9,1.9,0,0,0,.75.66,2.13,2.13,0,0,0,1,.22,2.3,2.3,0,0,0,1.11-.29,1.51,1.51,0,0,0,.72-.76l1.71.47a3.16,3.16,0,0,1-.81,1,3.71,3.71,0,0,1-1.24.72A4.38,4.38,0,0,1,332.74,226.43Zm-2-4.61h4.06a2.28,2.28,0,0,0-.33-1,1.86,1.86,0,0,0-.72-.67,2.07,2.07,0,0,0-1-.24,2,2,0,0,0-1,.24,1.93,1.93,0,0,0-.72.67A2.28,2.28,0,0,0,330.71,221.82Z"/><path d="M341.05,226.43a3.3,3.3,0,0,1-1.41-.3,3.2,3.2,0,0,1-1.11-.86,3.91,3.91,0,0,1-.72-1.26,4.43,4.43,0,0,1-.25-1.51,4.76,4.76,0,0,1,.26-1.58,4.19,4.19,0,0,1,.75-1.28,3.31,3.31,0,0,1,1.14-.86,3.5,3.5,0,0,1,1.46-.3,3.05,3.05,0,0,1,1.59.4,3.21,3.21,0,0,1,1.12,1.08v-1.37h1.74v7.35a3.4,3.4,0,0,1-.56,2,3.51,3.51,0,0,1-1.53,1.25,5.4,5.4,0,0,1-2.22.44,5,5,0,0,1-2.14-.42,4.32,4.32,0,0,1-1.49-1.2l1.08-1.05a3,3,0,0,0,1.12.86,3.32,3.32,0,0,0,1.43.31,3.11,3.11,0,0,0,1.16-.21,1.92,1.92,0,0,0,.84-.67,2,2,0,0,0,.32-1.19v-1a2.58,2.58,0,0,1-1.09,1A3.21,3.21,0,0,1,341.05,226.43Zm.67-1.58a1.8,1.8,0,0,0,.62-.11,2.19,2.19,0,0,0,.55-.28,2.24,2.24,0,0,0,.45-.42,2.58,2.58,0,0,0,.29-.5v-1.86a2.5,2.5,0,0,0-.49-.8,2.35,2.35,0,0,0-.71-.53,2,2,0,0,0-.83-.18,1.78,1.78,0,0,0-.83.19,1.91,1.91,0,0,0-.63.54,2.48,2.48,0,0,0-.41.77,2.67,2.67,0,0,0-.14.89,2.38,2.38,0,0,0,.16.89,2.36,2.36,0,0,0,.45.73,2.19,2.19,0,0,0,.68.49A2,2,0,0,0,341.72,224.85Z"/><path d="M346.88,224a2.12,2.12,0,0,1,.42-1.31,2.68,2.68,0,0,1,1.18-.88,4.65,4.65,0,0,1,1.73-.3,6.59,6.59,0,0,1,1,.07,3.4,3.4,0,0,1,.88.24v-.41a1.42,1.42,0,0,0-.44-1.12,1.84,1.84,0,0,0-1.3-.4,3.51,3.51,0,0,0-1.21.22,6.16,6.16,0,0,0-1.22.66l-.63-1.31a6.51,6.51,0,0,1,1.58-.75,5.53,5.53,0,0,1,1.69-.25,3.81,3.81,0,0,1,2.59.81,3,3,0,0,1,.92,2.34v2.44a.73.73,0,0,0,.11.44.56.56,0,0,0,.37.16v1.61l-.48.08-.37,0a1.3,1.3,0,0,1-.89-.27,1.09,1.09,0,0,1-.38-.65l0-.4a3.55,3.55,0,0,1-1.26,1,3.72,3.72,0,0,1-1.55.35,3,3,0,0,1-1.38-.31,2.38,2.38,0,0,1-1-.87A2.16,2.16,0,0,1,346.88,224Zm4.83.38a1.54,1.54,0,0,0,.26-.34.68.68,0,0,0,.11-.32V223a4.58,4.58,0,0,0-.77-.22,4.5,4.5,0,0,0-.79-.08,2.31,2.31,0,0,0-1.26.32,1,1,0,0,0-.34,1.41,1.1,1.1,0,0,0,.48.42,1.53,1.53,0,0,0,.74.16,2.45,2.45,0,0,0,.87-.17A2.06,2.06,0,0,0,351.71,224.4Z"/><path d="M360.5,225.9l-.61.24a5.38,5.38,0,0,1-.77.21,3.74,3.74,0,0,1-.82.08,2.59,2.59,0,0,1-1-.19,1.61,1.61,0,0,1-.73-.61,2,2,0,0,1-.27-1.09v-4.42h-1v-1.53h1v-2.51h2v2.51h1.63v1.53h-1.63v3.74a.72.72,0,0,0,.23.57.74.74,0,0,0,.51.18,1.81,1.81,0,0,0,.61-.1l.47-.18Z"/><path d="M361.53,217.44v-2h2v2Zm0,8.84v-7.76h2v7.76Z"/><path d="M367.4,226.28l-2.86-7.69h2.06l1.95,5.9,2-5.9h1.88l-2.85,7.69Z"/><path d="M376.79,226.43a4.39,4.39,0,0,1-1.69-.31,3.73,3.73,0,0,1-1.28-.87A3.84,3.84,0,0,1,373,224a4,4,0,0,1-.29-1.5,4.16,4.16,0,0,1,.5-2,3.73,3.73,0,0,1,1.42-1.45,4.19,4.19,0,0,1,2.19-.55A4.11,4.11,0,0,1,379,219a3.7,3.7,0,0,1,1.38,1.45,4.07,4.07,0,0,1,.48,1.94c0,.12,0,.24,0,.36s0,.22,0,.3h-6a2.14,2.14,0,0,0,.35,1,1.88,1.88,0,0,0,.74.66,2.13,2.13,0,0,0,1,.22,2.34,2.34,0,0,0,1.12-.29,1.55,1.55,0,0,0,.72-.76l1.7.47a3.16,3.16,0,0,1-.81,1,3.71,3.71,0,0,1-1.24.72A4.35,4.35,0,0,1,376.79,226.43Zm-2-4.61h4.06a2.28,2.28,0,0,0-.33-1,1.86,1.86,0,0,0-.72-.67,2,2,0,0,0-1-.24,2,2,0,0,0-1,.24,1.9,1.9,0,0,0-.71.67A2.17,2.17,0,0,0,374.76,221.82Z"/><path d="M384.93,226.43a5.74,5.74,0,0,1-1.9-.32,4.2,4.2,0,0,1-1.55-1l.71-1.29a4.92,4.92,0,0,0,1.37.83,3.47,3.47,0,0,0,1.29.27,1.89,1.89,0,0,0,.93-.2.65.65,0,0,0,.35-.6.53.53,0,0,0-.19-.43,2,2,0,0,0-.56-.27c-.24-.08-.54-.17-.88-.26a14.34,14.34,0,0,1-1.44-.55,2,2,0,0,1-.86-.66,1.67,1.67,0,0,1-.29-1,2.18,2.18,0,0,1,.39-1.31,2.59,2.59,0,0,1,1.1-.86,4.16,4.16,0,0,1,1.65-.3,4.83,4.83,0,0,1,1.57.25,4,4,0,0,1,1.35.84l-.8,1.26a4.91,4.91,0,0,0-1.13-.67,2.78,2.78,0,0,0-1.08-.22,2.27,2.27,0,0,0-.59.08.83.83,0,0,0-.44.24.61.61,0,0,0-.17.47.58.58,0,0,0,.15.43,1.52,1.52,0,0,0,.48.27l.78.26a14.78,14.78,0,0,1,1.57.54,2.46,2.46,0,0,1,1,.68A1.68,1.68,0,0,1,388,224a2.12,2.12,0,0,1-.84,1.78A3.66,3.66,0,0,1,384.93,226.43Z"/><path d="M316.92,238.92a7.79,7.79,0,0,1,.64-3,27.08,27.08,0,0,1,1.57-3.07l1.51.64q-.21.34-.54,1a13.82,13.82,0,0,0-.62,1.37,11.63,11.63,0,0,0-.5,1.58,6.2,6.2,0,0,0-.2,1.57,6.75,6.75,0,0,0,.51,2.48,19.85,19.85,0,0,0,1.31,2.67l-1.45.73a21.64,21.64,0,0,1-1.12-1.91,11,11,0,0,1-.81-2A7.11,7.11,0,0,1,316.92,238.92Z"/><path d="M330.05,235.34h-3.36v8.73h-2v-8.73h-3.37v-1.8h8.76Z"/><path d="M333.4,237.31v6.76h-2V233.54H333l5.43,6.94v-6.92h2.05v10.51h-1.71Z"/><path d="M345.24,244.21a5.79,5.79,0,0,1-1.9-.32,4.2,4.2,0,0,1-1.55-1l.71-1.28a5.12,5.12,0,0,0,1.37.82,3.48,3.48,0,0,0,1.3.27,1.77,1.77,0,0,0,.92-.2.65.65,0,0,0,.35-.6.51.51,0,0,0-.19-.43,2,2,0,0,0-.56-.27c-.24-.08-.53-.17-.88-.26a14.34,14.34,0,0,1-1.44-.55,2,2,0,0,1-.86-.66,1.67,1.67,0,0,1-.29-1,2.21,2.21,0,0,1,.39-1.31,2.59,2.59,0,0,1,1.1-.86,4.19,4.19,0,0,1,1.65-.3,4.54,4.54,0,0,1,1.57.26,3.83,3.83,0,0,1,1.35.83l-.8,1.26a4.91,4.91,0,0,0-1.13-.67,2.75,2.75,0,0,0-1.08-.22,2.27,2.27,0,0,0-.59.08.9.9,0,0,0-.44.24.64.64,0,0,0-.17.47.54.54,0,0,0,.16.43,1.35,1.35,0,0,0,.47.27c.21.08.47.17.78.26a15,15,0,0,1,1.58.54,2.53,2.53,0,0,1,1,.68,1.75,1.75,0,0,1,.32,1.1,2.12,2.12,0,0,1-.84,1.78A3.66,3.66,0,0,1,345.24,244.21Z"/><path d="M352.87,238.92a7.11,7.11,0,0,1-.3,2,10.31,10.31,0,0,1-.8,2,19.43,19.43,0,0,1-1.12,1.91l-1.45-.73a17.72,17.72,0,0,0,1.31-2.67,6.28,6.28,0,0,0,.31-4,10.41,10.41,0,0,0-.51-1.58,13.89,13.89,0,0,0-.61-1.37,8.73,8.73,0,0,0-.55-1l1.53-.64a26.81,26.81,0,0,1,1.55,3.07A7.61,7.61,0,0,1,352.87,238.92Z"/><path class="cls-4" d="M32.86,147.3V136.78h4.42a3,3,0,0,1,1.3.29,3.38,3.38,0,0,1,1,.79,3.55,3.55,0,0,1,.92,2.34,3.76,3.76,0,0,1-.39,1.67A3.27,3.27,0,0,1,39,143.15a2.88,2.88,0,0,1-1.67.49H34.52v3.66Zm1.66-5.13h2.75a1.34,1.34,0,0,0,.83-.26,1.69,1.69,0,0,0,.55-.7,2.49,2.49,0,0,0,.2-1,2.13,2.13,0,0,0-.24-1,1.72,1.72,0,0,0-.61-.69,1.51,1.51,0,0,0-.82-.24H34.52Z"/><path class="cls-4" d="M46.24,141a3.44,3.44,0,0,0-1.68.43,2.28,2.28,0,0,0-1,1.17v4.74H41.89v-7.69H43.4v1.67A3.6,3.6,0,0,1,44.45,140a2.51,2.51,0,0,1,1.38-.52h.41Z"/><path class="cls-4" d="M50.81,147.45a4.14,4.14,0,0,1-1.64-.32A3.89,3.89,0,0,1,47.08,145a4.07,4.07,0,0,1-.29-1.52,4,4,0,0,1,.51-2A3.89,3.89,0,0,1,48.7,140a4,4,0,0,1,2.12-.55,3.89,3.89,0,0,1,4,3.92,3.25,3.25,0,0,1,0,.33c0,.1,0,.19,0,.25H48.53a2.32,2.32,0,0,0,1.23,2,2.24,2.24,0,0,0,1.11.29,2.47,2.47,0,0,0,1.23-.33,1.66,1.66,0,0,0,.8-.86l1.39.4a3,3,0,0,1-.76,1,3.83,3.83,0,0,1-1.21.71A4.35,4.35,0,0,1,50.81,147.45Zm-2.33-4.54h4.68a2.34,2.34,0,0,0-.37-1.15,2.46,2.46,0,0,0-.85-.79,2.28,2.28,0,0,0-1.13-.28,2.24,2.24,0,0,0-1.12.28,2.35,2.35,0,0,0-.84.79A2.44,2.44,0,0,0,48.48,142.91Z"/><path class="cls-4" d="M55.62,143.47a4.34,4.34,0,0,1,.46-2A3.66,3.66,0,0,1,57.31,140a3.14,3.14,0,0,1,1.81-.54,2.91,2.91,0,0,1,1.61.46,3.48,3.48,0,0,1,1.12,1.14v-4.61h1.63v9a.6.6,0,0,0,.1.4.47.47,0,0,0,.34.14v1.3a4.5,4.5,0,0,1-.71.07,1.2,1.2,0,0,1-.78-.26.86.86,0,0,1-.33-.64l0-.58a3,3,0,0,1-1.2,1.15,3.26,3.26,0,0,1-1.57.41,3.46,3.46,0,0,1-2.64-1.18A4,4,0,0,1,55.9,145,4.12,4.12,0,0,1,55.62,143.47Zm6.23,1.06v-2a2.34,2.34,0,0,0-.53-.84,3.12,3.12,0,0,0-.81-.59,2.16,2.16,0,0,0-.9-.22,2.07,2.07,0,0,0-.94.22,2.43,2.43,0,0,0-.73.59,2.5,2.5,0,0,0-.46.83,2.93,2.93,0,0,0-.17,1,2.63,2.63,0,0,0,.18,1,2.57,2.57,0,0,0,.51.82,2.35,2.35,0,0,0,.77.56,2.32,2.32,0,0,0,1,.19,1.91,1.91,0,0,0,.66-.11,3.11,3.11,0,0,0,.63-.32,2,2,0,0,0,.52-.49A1.56,1.56,0,0,0,61.85,144.53Z"/><path class="cls-4" d="M65.55,138.27v-1.79h1.63v1.79Zm0,9v-7.75h1.63v7.75Z"/><path class="cls-4" d="M72.65,147.45a4.14,4.14,0,0,1-1.64-.32,3.88,3.88,0,0,1-1.27-.87,4,4,0,0,1-.82-1.28,4.12,4.12,0,0,1-.29-1.53,4,4,0,0,1,.5-2A3.91,3.91,0,0,1,70.52,140a4.06,4.06,0,0,1,2.13-.54,4,4,0,0,1,2.07.53,3.17,3.17,0,0,1,1.29,1.4l-1.58.5a1.89,1.89,0,0,0-.75-.76,2.05,2.05,0,0,0-1.06-.28,2.16,2.16,0,0,0-1.18.33,2.29,2.29,0,0,0-.83.91,2.83,2.83,0,0,0-.3,1.33,2.8,2.8,0,0,0,.31,1.33,2.52,2.52,0,0,0,.84.93,2.21,2.21,0,0,0,2,.2,2.15,2.15,0,0,0,.66-.38,1.36,1.36,0,0,0,.4-.54l1.6.47a2.87,2.87,0,0,1-.75,1,3.63,3.63,0,0,1-1.17.71A4.22,4.22,0,0,1,72.65,147.45Z"/><path class="cls-4" d="M81.73,146.93c-.14.07-.31.14-.52.22a4.88,4.88,0,0,1-.7.21,3.59,3.59,0,0,1-.81.09,2.37,2.37,0,0,1-.93-.18,1.48,1.48,0,0,1-.69-.57,1.82,1.82,0,0,1-.26-1v-4.82h-1v-1.26h1v-2.55h1.63v2.55h1.69v1.26H79.45v4.3a.82.82,0,0,0,.26.59.84.84,0,0,0,.57.19,1.78,1.78,0,0,0,.65-.12l.46-.19Z"/><path class="cls-4" d="M86.27,147.45a4.1,4.1,0,0,1-1.64-.32A3.89,3.89,0,0,1,82.54,145a4.17,4.17,0,0,1,.21-3.51,3.91,3.91,0,0,1,3.53-2,3.78,3.78,0,0,1,3.47,2,4,4,0,0,1,.49,1.92,3.25,3.25,0,0,1,0,.33c0,.1,0,.19,0,.25H84a2.38,2.38,0,0,0,1.23,2,2.31,2.31,0,0,0,1.12.29,2.47,2.47,0,0,0,1.23-.33,1.7,1.7,0,0,0,.8-.86l1.39.4a2.87,2.87,0,0,1-.77,1,3.78,3.78,0,0,1-1.2.71A4.39,4.39,0,0,1,86.27,147.45Zm-2.33-4.54h4.68a2.25,2.25,0,0,0-.38-1.15,2.35,2.35,0,0,0-.84-.79,2.28,2.28,0,0,0-1.13-.28,2.24,2.24,0,0,0-1.12.28,2.36,2.36,0,0,0-1.21,1.94Z"/><path class="cls-4" d="M91.08,143.47a4.46,4.46,0,0,1,.45-2A3.68,3.68,0,0,1,92.77,140a3.12,3.12,0,0,1,1.81-.54,2.91,2.91,0,0,1,1.61.46,3.48,3.48,0,0,1,1.12,1.14v-4.61h1.63v9a.6.6,0,0,0,.1.4.47.47,0,0,0,.34.14v1.3a4.61,4.61,0,0,1-.71.07,1.2,1.2,0,0,1-.78-.26.86.86,0,0,1-.33-.64l0-.58a3,3,0,0,1-1.2,1.15,3.28,3.28,0,0,1-1.57.41,3.46,3.46,0,0,1-2.64-1.18,4,4,0,0,1-.77-1.27A4.12,4.12,0,0,1,91.08,143.47Zm6.23,1.06v-2a2.34,2.34,0,0,0-.53-.84,3,3,0,0,0-.82-.59,2.12,2.12,0,0,0-.89-.22,2.07,2.07,0,0,0-.94.22,2.32,2.32,0,0,0-.73.59,2.71,2.71,0,0,0-.47.83,3.19,3.19,0,0,0-.16,1,2.63,2.63,0,0,0,.18,1,2.57,2.57,0,0,0,.51.82,2.35,2.35,0,0,0,.77.56,2.32,2.32,0,0,0,1,.19,2,2,0,0,0,.66-.11,3.11,3.11,0,0,0,.63-.32,2,2,0,0,0,.52-.49A1.72,1.72,0,0,0,97.31,144.53Z"/><path class="cls-4" d="M30.09,165.08V154.56H34.5a2.87,2.87,0,0,1,1.31.3,3.27,3.27,0,0,1,1,.78,3.55,3.55,0,0,1,.92,2.34,3.76,3.76,0,0,1-.39,1.67,3.27,3.27,0,0,1-1.11,1.28,2.88,2.88,0,0,1-1.67.49H31.75v3.66ZM31.75,160h2.74a1.34,1.34,0,0,0,.83-.26,1.69,1.69,0,0,0,.55-.7,2.34,2.34,0,0,0,.2-1,2.25,2.25,0,0,0-.23-1,1.81,1.81,0,0,0-.62-.69,1.51,1.51,0,0,0-.82-.24H31.75Z"/><path class="cls-4" d="M42.44,165.23a4.07,4.07,0,0,1-1.64-.32,3.7,3.7,0,0,1-1.25-.87,4,4,0,0,1-1.09-2.79,4.12,4.12,0,0,1,.28-1.53,3.93,3.93,0,0,1,.81-1.27,3.86,3.86,0,0,1,1.26-.86,4.34,4.34,0,0,1,3.27,0,3.86,3.86,0,0,1,1.26.86,3.93,3.93,0,0,1,.81,1.27,4.12,4.12,0,0,1,.28,1.53A4,4,0,0,1,45.34,164a3.74,3.74,0,0,1-1.26.87A4.1,4.1,0,0,1,42.44,165.23Zm-2.31-4a2.86,2.86,0,0,0,.31,1.32,2.55,2.55,0,0,0,.83.92,2.15,2.15,0,0,0,1.17.33,2.08,2.08,0,0,0,1.17-.34,2.41,2.41,0,0,0,.83-.93,2.86,2.86,0,0,0,0-2.63,2.46,2.46,0,0,0-.83-.92,2.13,2.13,0,0,0-2.34,0,2.76,2.76,0,0,0-.83.93A2.86,2.86,0,0,0,40.13,161.26Z"/><path class="cls-4" d="M50.64,165.23a5.41,5.41,0,0,1-1.85-.32,3.8,3.8,0,0,1-1.5-1l.61-1.09a4.66,4.66,0,0,0,1.34.86,3.75,3.75,0,0,0,1.34.26,2.17,2.17,0,0,0,1.11-.25.81.81,0,0,0,.43-.75.65.65,0,0,0-.22-.54,2.07,2.07,0,0,0-.65-.31c-.28-.09-.62-.19-1-.29a10.26,10.26,0,0,1-1.4-.52,2.33,2.33,0,0,1-.84-.67,1.71,1.71,0,0,1-.28-1,2.14,2.14,0,0,1,.38-1.27,2.42,2.42,0,0,1,1.08-.81,4.14,4.14,0,0,1,1.59-.28,4.64,4.64,0,0,1,1.56.26,3.29,3.29,0,0,1,1.27.81l-.7,1.08a3.5,3.5,0,0,0-1-.7,3,3,0,0,0-1.17-.22,3.08,3.08,0,0,0-.68.08,1.09,1.09,0,0,0-.54.29.83.83,0,0,0-.21.6.71.71,0,0,0,.17.5,1.51,1.51,0,0,0,.54.32c.23.09.52.18.87.29.6.18,1.12.35,1.54.52a2.53,2.53,0,0,1,1,.66,1.66,1.66,0,0,1,.35,1.11,2,2,0,0,1-.84,1.73A3.62,3.62,0,0,1,50.64,165.23Z"/><path class="cls-4" d="M55.16,156.06v-1.8h1.63v1.8Zm0,9v-7.75h1.63v7.75Z"/><path class="cls-4" d="M63.05,164.71a5.42,5.42,0,0,1-1.22.43,3.59,3.59,0,0,1-.81.09,2.41,2.41,0,0,1-.93-.18,1.48,1.48,0,0,1-.69-.57,1.8,1.8,0,0,1-.26-1v-4.82h-1v-1.26h1v-2.55h1.63v2.55h1.69v1.26H60.77V163a.82.82,0,0,0,.26.59.87.87,0,0,0,.57.19,1.75,1.75,0,0,0,.65-.12l.46-.19Z"/><path class="cls-4" d="M64.18,156.06v-1.8h1.63v1.8Zm0,9v-7.75h1.63v7.75Z"/><path class="cls-4" d="M69.93,165.08l-3-7.69h1.69l2.21,6.19,2.21-6.19h1.57l-3,7.69Z"/><path class="cls-4" d="M79.07,165.23a4.05,4.05,0,0,1-1.63-.32,3.89,3.89,0,0,1-2.09-2.13,3.88,3.88,0,0,1-.29-1.52,4,4,0,0,1,.5-2,3.91,3.91,0,0,1,3.53-2,3.78,3.78,0,0,1,3.46,2,3.86,3.86,0,0,1,.49,1.92c0,.12,0,.23,0,.33s0,.19,0,.26H76.79a2.39,2.39,0,0,0,.38,1.17,2.36,2.36,0,0,0,2,1.08,2.48,2.48,0,0,0,1.24-.33,1.68,1.68,0,0,0,.79-.86l1.39.4a2.84,2.84,0,0,1-.76,1,3.72,3.72,0,0,1-1.21.71A4.31,4.31,0,0,1,79.07,165.23Zm-2.32-4.54h4.68a2.4,2.4,0,0,0-1.22-1.94,2.43,2.43,0,0,0-1.14-.28,2.38,2.38,0,0,0-1.12.28,2.24,2.24,0,0,0-.83.79A2.34,2.34,0,0,0,76.75,160.69Z"/><path class="cls-4" d="M87.62,160a7.53,7.53,0,0,1,.63-3,26.45,26.45,0,0,1,1.52-3l1.26.53a9.79,9.79,0,0,0-.59,1c-.21.41-.41.87-.61,1.38a12.26,12.26,0,0,0-.49,1.56,6.44,6.44,0,0,0-.19,1.55,7.12,7.12,0,0,0,.5,2.49A16.34,16.34,0,0,0,91,165.17l-1.19.61a19.64,19.64,0,0,1-1.12-1.9,10.81,10.81,0,0,1-.78-2A7.56,7.56,0,0,1,87.62,160Z"/><path class="cls-4" d="M98.07,163.61v1.47H92.41v-1.47h2.1v-5.17a1.91,1.91,0,0,1-.41.37,4.72,4.72,0,0,1-.63.36,4.18,4.18,0,0,1-.71.28,2.24,2.24,0,0,1-.65.1V158a1.61,1.61,0,0,0,.68-.18,7.31,7.31,0,0,0,.77-.42,6.26,6.26,0,0,0,.64-.48,1.18,1.18,0,0,0,.31-.33h1.68v7Z"/><path class="cls-4" d="M102.23,160a7.16,7.16,0,0,1-.28,2,10.77,10.77,0,0,1-.77,2,21.79,21.79,0,0,1-1.11,1.9l-1.2-.61a17.18,17.18,0,0,0,1.34-2.68,6.92,6.92,0,0,0,.51-2.49,6.44,6.44,0,0,0-.19-1.55,12.31,12.31,0,0,0-.5-1.56c-.2-.51-.41-1-.62-1.38a10.14,10.14,0,0,0-.57-1l1.24-.53a23.62,23.62,0,0,1,1.53,3A7.69,7.69,0,0,1,102.23,160Z"/><path class="cls-4" d="M310.53,76.21h1.57l4.09,10.52h-1.75l-1-2.86h-4.21l-1,2.86h-1.77ZM313,82.64,311.32,78l-1.67,4.61Z"/><path class="cls-4" d="M320.56,86.88a3.92,3.92,0,0,1-1.63-.32,3.78,3.78,0,0,1-1.27-.87,3.84,3.84,0,0,1-.82-1.28,3.88,3.88,0,0,1-.29-1.52,4,4,0,0,1,.49-2,3.87,3.87,0,0,1,1.4-1.44,3.92,3.92,0,0,1,2.12-.55,4,4,0,0,1,2.07.53,3.24,3.24,0,0,1,1.3,1.4l-1.59.5a2,2,0,0,0-.75-.76,2.12,2.12,0,0,0-1.06-.27,2.15,2.15,0,0,0-1.17.33,2.19,2.19,0,0,0-.83.9,2.76,2.76,0,0,0-.31,1.34,2.89,2.89,0,0,0,.31,1.32,2.44,2.44,0,0,0,.84.93,2.1,2.1,0,0,0,1.18.35A2.2,2.2,0,0,0,322,85a1.46,1.46,0,0,0,.4-.54l1.6.48a3.06,3.06,0,0,1-.75,1,3.79,3.79,0,0,1-1.17.7A4.23,4.23,0,0,1,320.56,86.88Z"/><path class="cls-4" d="M329.65,86.36a4.53,4.53,0,0,1-.52.22,5,5,0,0,1-.71.21,3.57,3.57,0,0,1-.8.09,2.42,2.42,0,0,1-.94-.18,1.5,1.5,0,0,1-.69-.56,1.84,1.84,0,0,1-.26-1V80.3h-1V79h1V76.49h1.63V79h1.69V80.3h-1.69v4.3a.82.82,0,0,0,.26.59.87.87,0,0,0,.57.19,2.08,2.08,0,0,0,.66-.11l.46-.2Z"/><path class="cls-4" d="M330.7,83.75V79h1.63v4.38a2.59,2.59,0,0,0,.38,1.55,1.29,1.29,0,0,0,1.1.52,2.38,2.38,0,0,0,.9-.19,2.68,2.68,0,0,0,.8-.57,2.8,2.8,0,0,0,.58-.89V79h1.63V84.9a.6.6,0,0,0,.11.4.45.45,0,0,0,.34.13v1.3l-.42.06-.31,0a1.09,1.09,0,0,1-.74-.25.9.9,0,0,1-.34-.62l0-.77A3.52,3.52,0,0,1,335,86.45a3.85,3.85,0,0,1-1.82.43,2.2,2.2,0,0,1-1.84-.79A3.77,3.77,0,0,1,330.7,83.75Z"/><path class="cls-4" d="M339.23,84.49a2.08,2.08,0,0,1,.42-1.29,2.8,2.8,0,0,1,1.17-.85,4.52,4.52,0,0,1,1.72-.3,7.75,7.75,0,0,1,1.06.07,4,4,0,0,1,.95.24v-.48a1.61,1.61,0,0,0-.49-1.26,2,2,0,0,0-1.4-.45,3.41,3.41,0,0,0-1.24.23,7.61,7.61,0,0,0-1.22.64L339.65,80a5.74,5.74,0,0,1,1.55-.77,5.15,5.15,0,0,1,1.63-.26,3.5,3.5,0,0,1,2.46.82,3,3,0,0,1,.89,2.3V84.9a.6.6,0,0,0,.1.4.42.42,0,0,0,.33.13v1.3l-.4.06-.29,0a1.11,1.11,0,0,1-.79-.26.93.93,0,0,1-.31-.59l-.05-.44a3.25,3.25,0,0,1-1.28,1,3.83,3.83,0,0,1-1.59.36,2.87,2.87,0,0,1-1.38-.32,2.45,2.45,0,0,1-.95-.85A2.33,2.33,0,0,1,339.23,84.49Zm4.94.46a1.61,1.61,0,0,0,.28-.38.68.68,0,0,0,.1-.33v-.88a5.84,5.84,0,0,0-.87-.24,5.69,5.69,0,0,0-.91-.08,2.69,2.69,0,0,0-1.44.35,1.1,1.1,0,0,0-.56,1A1.2,1.2,0,0,0,341,85a1.4,1.4,0,0,0,.53.49,1.75,1.75,0,0,0,.87.19,2.73,2.73,0,0,0,1-.2A2.19,2.19,0,0,0,344.17,85Z"/><path class="cls-4" d="M348.17,75.92h1.63v8.6a1.08,1.08,0,0,0,.18.76.6.6,0,0,0,.44.16,2.53,2.53,0,0,0,.56-.06,3.45,3.45,0,0,0,.45-.14l.23,1.28a4.41,4.41,0,0,1-.84.26,4.22,4.22,0,0,1-.87.1,1.79,1.79,0,0,1-1.31-.47,1.75,1.75,0,0,1-.47-1.3Z"/><path class="cls-4" d="M352.63,75.92h1.63v8.6a1.08,1.08,0,0,0,.18.76.6.6,0,0,0,.44.16,2.53,2.53,0,0,0,.56-.06,3.45,3.45,0,0,0,.45-.14l.23,1.28a4.41,4.41,0,0,1-.84.26,4.22,4.22,0,0,1-.87.1,1.79,1.79,0,0,1-1.31-.47,1.75,1.75,0,0,1-.47-1.3Z"/><path class="cls-4" d="M357,88.56c.15,0,.3,0,.44.06a1.7,1.7,0,0,0,.35,0,.65.65,0,0,0,.44-.16,1.58,1.58,0,0,0,.37-.56c.13-.28.29-.67.48-1.19L355.9,79h1.71L360,85.1l2.1-6.06h1.57l-3.51,9.49a2.76,2.76,0,0,1-.47.79,2.31,2.31,0,0,1-.77.57,2.62,2.62,0,0,1-1.09.21l-.37,0L357,90Z"/><path class="cls-4" d="M295.58,97.07v7.44h-1.66V94h1.36l6,7.6V94h1.68v10.5h-1.46Z"/><path class="cls-4" d="M308.46,104.66a4.1,4.1,0,0,1-1.64-.31,4,4,0,0,1-1.27-.87,4,4,0,0,1-.82-1.27,4,4,0,0,1-.29-1.52,4.11,4.11,0,0,1,.5-2,4,4,0,0,1,1.41-1.45,4.08,4.08,0,0,1,2.12-.55,4,4,0,0,1,2.1.55,3.89,3.89,0,0,1,1.37,1.45,4,4,0,0,1,.49,1.92,3.25,3.25,0,0,1,0,.33c0,.1,0,.19,0,.26h-6.21a2.43,2.43,0,0,0,.38,1.18,2.47,2.47,0,0,0,.85.79,2.3,2.3,0,0,0,1.12.28,2.56,2.56,0,0,0,1.23-.32,1.74,1.74,0,0,0,.8-.86l1.39.4a3,3,0,0,1-.76,1,3.94,3.94,0,0,1-1.21.71A4.39,4.39,0,0,1,308.46,104.66Zm-2.33-4.53h4.68a2.29,2.29,0,0,0-.38-1.16,2.41,2.41,0,0,0-.84-.78,2.29,2.29,0,0,0-1.13-.29,2.25,2.25,0,0,0-1.12.29,2.41,2.41,0,0,0-.84.78A2.38,2.38,0,0,0,306.13,100.13Z"/><path class="cls-4" d="M316.83,104.66a3.14,3.14,0,0,1-1.44-.32,3.5,3.5,0,0,1-1.12-.86,4.13,4.13,0,0,1-.72-1.26,4.23,4.23,0,0,1-.26-1.5,4.73,4.73,0,0,1,.26-1.56,4.19,4.19,0,0,1,.75-1.28,3.31,3.31,0,0,1,1.14-.86,3.25,3.25,0,0,1,1.45-.32,3.07,3.07,0,0,1,1.64.44,3.85,3.85,0,0,1,1.16,1.15V96.82h1.43v7.49a3.18,3.18,0,0,1-.54,1.9,3.4,3.4,0,0,1-1.47,1.19,5,5,0,0,1-2.1.42,4.55,4.55,0,0,1-2.14-.45,4.26,4.26,0,0,1-1.43-1.21l.91-.86a3,3,0,0,0,1.15,1,3.65,3.65,0,0,0,1.51.32,3.32,3.32,0,0,0,1.23-.23,2,2,0,0,0,.91-.73,2.11,2.11,0,0,0,.35-1.24v-1.19a2.94,2.94,0,0,1-1.15,1.09A3.16,3.16,0,0,1,316.83,104.66Zm.53-1.32a2.08,2.08,0,0,0,.71-.12,2.72,2.72,0,0,0,.63-.34,2.59,2.59,0,0,0,.5-.49,1.83,1.83,0,0,0,.3-.59v-2a2.85,2.85,0,0,0-.55-.88,2.81,2.81,0,0,0-.8-.59,2.26,2.26,0,0,0-.91-.2,1.88,1.88,0,0,0-.95.23,2.31,2.31,0,0,0-.72.6,3,3,0,0,0-.46.86,2.9,2.9,0,0,0-.16,1,2.73,2.73,0,0,0,.18,1,2.9,2.9,0,0,0,.51.82,2.35,2.35,0,0,0,.77.56A2.22,2.22,0,0,0,317.36,103.34Z"/><path class="cls-4" d="M322.52,102.27a2.08,2.08,0,0,1,.42-1.29,2.77,2.77,0,0,1,1.16-.85,4.59,4.59,0,0,1,1.72-.3,9.59,9.59,0,0,1,1.06.07,4.21,4.21,0,0,1,1,.24v-.48a1.65,1.65,0,0,0-.49-1.26,2,2,0,0,0-1.41-.45,3.4,3.4,0,0,0-1.23.23,8.12,8.12,0,0,0-1.23.64l-.55-1.09a5.89,5.89,0,0,1,1.55-.77,5.26,5.26,0,0,1,1.64-.26,3.52,3.52,0,0,1,2.45.82,2.94,2.94,0,0,1,.9,2.3v2.86a.67.67,0,0,0,.09.4.46.46,0,0,0,.34.13v1.3l-.4.06-.3,0a1.12,1.12,0,0,1-.78-.25,1,1,0,0,1-.32-.6l0-.44a3.48,3.48,0,0,1-1.29,1,3.89,3.89,0,0,1-1.58.35,2.92,2.92,0,0,1-1.38-.31,2.4,2.4,0,0,1-.95-.86A2.25,2.25,0,0,1,322.52,102.27Zm4.93.46a1.38,1.38,0,0,0,.28-.38.68.68,0,0,0,.11-.33v-.88a6,6,0,0,0-.88-.24,5.47,5.47,0,0,0-.9-.08,2.69,2.69,0,0,0-1.44.35,1.11,1.11,0,0,0-.56,1,1.19,1.19,0,0,0,.19.64,1.33,1.33,0,0,0,.53.49,1.74,1.74,0,0,0,.86.19,2.78,2.78,0,0,0,1-.2A2.24,2.24,0,0,0,327.45,102.73Z"/><path class="cls-4" d="M335.69,104.14a5.58,5.58,0,0,1-.52.23c-.21.07-.44.14-.7.2a3.59,3.59,0,0,1-.81.09,2.37,2.37,0,0,1-.93-.18,1.41,1.41,0,0,1-.69-.56,1.82,1.82,0,0,1-.26-1V98.08h-1V96.82h1V94.27h1.63v2.55h1.69v1.26h-1.69v4.3a.8.8,0,0,0,.26.59.84.84,0,0,0,.57.19,1.78,1.78,0,0,0,.65-.11,5,5,0,0,0,.46-.2Z"/><path class="cls-4" d="M336.82,95.49V93.7h1.63v1.79Zm0,9V96.76h1.63v7.75Z"/><path class="cls-4" d="M342.57,104.51l-2.95-7.69h1.69l2.2,6.19,2.21-6.19h1.57l-3,7.69Z"/><path class="cls-4" d="M351.71,104.66a4.13,4.13,0,0,1-1.64-.31,4,4,0,0,1-1.27-.87,4,4,0,0,1-.82-1.27,4.13,4.13,0,0,1,.22-3.51,3.89,3.89,0,0,1,1.4-1.45,4.08,4.08,0,0,1,2.12-.55,4,4,0,0,1,2.1.55,4,4,0,0,1,1.86,3.37c0,.12,0,.23,0,.33s0,.19,0,.26h-6.2a2.42,2.42,0,0,0,.37,1.18,2.5,2.5,0,0,0,.86.79,2.23,2.23,0,0,0,1.11.28,2.56,2.56,0,0,0,1.23-.32,1.7,1.7,0,0,0,.8-.86l1.39.4a3,3,0,0,1-.76,1,3.83,3.83,0,0,1-1.21.71A4.35,4.35,0,0,1,351.71,104.66Zm-2.33-4.53h4.68a2.28,2.28,0,0,0-.37-1.16,2.53,2.53,0,0,0-.85-.78,2.29,2.29,0,0,0-1.13-.29,2.25,2.25,0,0,0-1.12.29,2.41,2.41,0,0,0-.84.78A2.48,2.48,0,0,0,349.38,100.13Z"/><path class="cls-4" d="M360.26,99.39a7.54,7.54,0,0,1,.63-3,26.47,26.47,0,0,1,1.52-3l1.26.53a9.1,9.1,0,0,0-.59,1,14.09,14.09,0,0,0-.61,1.39,12.12,12.12,0,0,0-.49,1.55,6.53,6.53,0,0,0-.2,1.55,6.92,6.92,0,0,0,.51,2.49,16.26,16.26,0,0,0,1.33,2.68l-1.18.61a17.5,17.5,0,0,1-1.12-1.9,10.53,10.53,0,0,1-.78-2A7.14,7.14,0,0,1,360.26,99.39Z"/><path class="cls-4" d="M372.17,100.24a4.94,4.94,0,0,1-.5,2.28,4,4,0,0,1-1.34,1.57,3.6,3.6,0,0,1-3.89,0,3.87,3.87,0,0,1-1.36-1.57,5.47,5.47,0,0,1,0-4.57,3.93,3.93,0,0,1,1.36-1.57,3.55,3.55,0,0,1,3.89,0A4,4,0,0,1,371.67,98,5,5,0,0,1,372.17,100.24Zm-1.66,0a4.23,4.23,0,0,0-.26-1.53,2.38,2.38,0,0,0-.76-1,1.88,1.88,0,0,0-2.24,0,2.46,2.46,0,0,0-.76,1,4,4,0,0,0-.28,1.53,4,4,0,0,0,.28,1.52,2.49,2.49,0,0,0,.76,1,1.8,1.8,0,0,0,1.13.37,1.74,1.74,0,0,0,1.1-.37,2.58,2.58,0,0,0,.76-1A4,4,0,0,0,370.51,100.24Z"/><path class="cls-4" d="M376.48,99.39a7.14,7.14,0,0,1-.28,2,10.49,10.49,0,0,1-.77,2,19.18,19.18,0,0,1-1.11,1.9l-1.2-.61a17.18,17.18,0,0,0,1.34-2.68,6.92,6.92,0,0,0,.51-2.49,6.5,6.5,0,0,0-.19-1.55,12.17,12.17,0,0,0-.5-1.55c-.2-.51-.41-1-.62-1.39a11.43,11.43,0,0,0-.57-1l1.24-.53a23.64,23.64,0,0,1,1.53,3A7.52,7.52,0,0,1,376.48,99.39Z"/><path class="cls-4" d="M32.86,226.28V215.76h4.42a2.83,2.83,0,0,1,1.3.3,3.51,3.51,0,0,1,1,.78,3.42,3.42,0,0,1,.68,1.1,3.39,3.39,0,0,1,.24,1.25,3.71,3.71,0,0,1-.39,1.66A3.21,3.21,0,0,1,39,222.13a2.88,2.88,0,0,1-1.67.49H34.52v3.66Zm1.66-5.12h2.75a1.41,1.41,0,0,0,.83-.26,1.79,1.79,0,0,0,.55-.71,2.44,2.44,0,0,0,.2-1,2.15,2.15,0,0,0-.24-1,1.86,1.86,0,0,0-.61-.69,1.51,1.51,0,0,0-.82-.24H34.52Z"/><path class="cls-4" d="M46.24,219.94a3.44,3.44,0,0,0-1.68.43,2.36,2.36,0,0,0-1,1.17v4.74H41.89v-7.69H43.4v1.68A3.52,3.52,0,0,1,44.45,219a2.61,2.61,0,0,1,1.38-.53h.41Z"/><path class="cls-4" d="M50.81,226.43a4.13,4.13,0,0,1-1.64-.31,4,4,0,0,1-1.27-.87,4,4,0,0,1-.82-1.27,4.13,4.13,0,0,1,.22-3.51A3.89,3.89,0,0,1,48.7,219a4.08,4.08,0,0,1,2.12-.55,4,4,0,0,1,2.1.55,4,4,0,0,1,1.86,3.37,3.25,3.25,0,0,1,0,.33c0,.11,0,.19,0,.26H48.53a2.42,2.42,0,0,0,.37,1.18,2.5,2.5,0,0,0,.86.79,2.23,2.23,0,0,0,1.11.28,2.56,2.56,0,0,0,1.23-.32,1.7,1.7,0,0,0,.8-.86l1.39.4a3,3,0,0,1-.76,1,3.83,3.83,0,0,1-1.21.71A4.35,4.35,0,0,1,50.81,226.43Zm-2.33-4.53h4.68a2.38,2.38,0,0,0-.37-1.16,2.53,2.53,0,0,0-.85-.78,2.29,2.29,0,0,0-1.13-.29,2.25,2.25,0,0,0-1.12.29,2.41,2.41,0,0,0-.84.78A2.48,2.48,0,0,0,48.48,221.9Z"/><path class="cls-4" d="M55.62,222.45a4.3,4.3,0,0,1,.46-2A3.76,3.76,0,0,1,57.31,219a3.14,3.14,0,0,1,1.81-.54,3,3,0,0,1,1.61.46,3.48,3.48,0,0,1,1.12,1.14v-4.6h1.63v9a.62.62,0,0,0,.1.4.51.51,0,0,0,.34.13v1.3a4.75,4.75,0,0,1-.71.08,1.16,1.16,0,0,1-.78-.27.86.86,0,0,1-.33-.64l0-.57a3,3,0,0,1-1.2,1.14,3.15,3.15,0,0,1-1.57.41,3.49,3.49,0,0,1-2.64-1.17A4,4,0,0,1,55.9,224,4.12,4.12,0,0,1,55.62,222.45Zm6.23,1.07v-2a2.34,2.34,0,0,0-.53-.84,2.72,2.72,0,0,0-.81-.59,2,2,0,0,0-.9-.22,2,2,0,0,0-.94.22,2.4,2.4,0,0,0-.73.58,2.5,2.5,0,0,0-.46.83,3,3,0,0,0-.17,1,2.72,2.72,0,0,0,.18,1,2.57,2.57,0,0,0,.51.82,2.47,2.47,0,0,0,.77.55,2.32,2.32,0,0,0,1,.2,1.92,1.92,0,0,0,.66-.12,2.67,2.67,0,0,0,.63-.32,2.18,2.18,0,0,0,.52-.48A1.72,1.72,0,0,0,61.85,223.52Z"/><path class="cls-4" d="M65.55,217.26v-1.79h1.63v1.79Zm0,9v-7.75h1.63v7.75Z"/><path class="cls-4" d="M72.65,226.43a4.13,4.13,0,0,1-1.64-.31,3.91,3.91,0,0,1-1.27-.88,4.12,4.12,0,0,1-.61-4.78A3.77,3.77,0,0,1,70.52,219a4.07,4.07,0,0,1,2.13-.55,4,4,0,0,1,2.07.53A3.22,3.22,0,0,1,76,220.4l-1.58.5a2,2,0,0,0-.75-.76,2.25,2.25,0,0,0-2.24.06,2.32,2.32,0,0,0-.83.9,2.88,2.88,0,0,0-.3,1.34,2.74,2.74,0,0,0,.31,1.32,2.47,2.47,0,0,0,.84.94,2.16,2.16,0,0,0,1.17.34,2.29,2.29,0,0,0,.78-.14,2.17,2.17,0,0,0,.66-.39,1.36,1.36,0,0,0,.4-.54l1.6.48a3.06,3.06,0,0,1-.75,1,3.79,3.79,0,0,1-1.17.7A4.22,4.22,0,0,1,72.65,226.43Z"/><path class="cls-4" d="M81.73,225.91a3.87,3.87,0,0,1-.52.22,4.88,4.88,0,0,1-.7.21,3.59,3.59,0,0,1-.81.09,2.37,2.37,0,0,1-.93-.18,1.41,1.41,0,0,1-.69-.56,1.82,1.82,0,0,1-.26-1v-4.83h-1v-1.26h1V216h1.63v2.55h1.69v1.26H79.45v4.3a.8.8,0,0,0,.26.59.84.84,0,0,0,.57.19,1.78,1.78,0,0,0,.65-.11,5,5,0,0,0,.46-.2Z"/><path class="cls-4" d="M86.27,226.43a4.1,4.1,0,0,1-1.64-.31,4,4,0,0,1-1.27-.87,4,4,0,0,1-.82-1.27,4,4,0,0,1-.29-1.52,4.11,4.11,0,0,1,.5-2A4,4,0,0,1,84.16,219a4.05,4.05,0,0,1,2.12-.55,4,4,0,0,1,2.1.55,3.89,3.89,0,0,1,1.37,1.45,4,4,0,0,1,.49,1.92,3.25,3.25,0,0,1,0,.33c0,.11,0,.19,0,.26H84a2.43,2.43,0,0,0,.38,1.18,2.47,2.47,0,0,0,.85.79,2.3,2.3,0,0,0,1.12.28,2.56,2.56,0,0,0,1.23-.32,1.74,1.74,0,0,0,.8-.86l1.39.4a2.93,2.93,0,0,1-.77,1,3.78,3.78,0,0,1-1.2.71A4.39,4.39,0,0,1,86.27,226.43Zm-2.33-4.53h4.68a2.29,2.29,0,0,0-.38-1.16,2.41,2.41,0,0,0-.84-.78,2.29,2.29,0,0,0-1.13-.29,2.25,2.25,0,0,0-1.12.29,2.41,2.41,0,0,0-.84.78A2.38,2.38,0,0,0,83.94,221.9Z"/><path class="cls-4" d="M91.08,222.45a4.42,4.42,0,0,1,.45-2A3.78,3.78,0,0,1,92.77,219a3.12,3.12,0,0,1,1.81-.54,3,3,0,0,1,1.61.46,3.48,3.48,0,0,1,1.12,1.14v-4.6h1.63v9a.62.62,0,0,0,.1.4.51.51,0,0,0,.34.13v1.3a4.89,4.89,0,0,1-.71.08,1.16,1.16,0,0,1-.78-.27.86.86,0,0,1-.33-.64l0-.57a3,3,0,0,1-1.2,1.14,3.18,3.18,0,0,1-1.57.41,3.49,3.49,0,0,1-2.64-1.17,4,4,0,0,1-.77-1.28A4.12,4.12,0,0,1,91.08,222.45Zm6.23,1.07v-2a2.34,2.34,0,0,0-.53-.84,2.64,2.64,0,0,0-.82-.59,2,2,0,0,0-.89-.22,2,2,0,0,0-.94.22,2.29,2.29,0,0,0-.73.58,2.71,2.71,0,0,0-.47.83,3.24,3.24,0,0,0-.16,1,2.72,2.72,0,0,0,.18,1,2.57,2.57,0,0,0,.51.82,2.47,2.47,0,0,0,.77.55,2.32,2.32,0,0,0,1,.2,2,2,0,0,0,.66-.12,2.67,2.67,0,0,0,.63-.32,2.18,2.18,0,0,0,.52-.48A1.91,1.91,0,0,0,97.31,223.52Z"/><path class="cls-4" d="M26.54,236.63v7.43H24.88V233.54h1.36l6,7.61v-7.59h1.67v10.5H32.42Z"/><path class="cls-4" d="M39.41,244.21a4.08,4.08,0,0,1-1.63-.31,3.88,3.88,0,0,1-1.27-.87,3.8,3.8,0,0,1-.82-1.27,3.85,3.85,0,0,1-.29-1.52,4,4,0,0,1,.5-2,3.92,3.92,0,0,1,1.41-1.45,4,4,0,0,1,2.12-.55,3.8,3.8,0,0,1,3.47,2,4,4,0,0,1,.49,1.92,3.25,3.25,0,0,1,0,.33c0,.11,0,.19,0,.26H37.13a2.43,2.43,0,0,0,.38,1.18,2.47,2.47,0,0,0,.85.79,2.29,2.29,0,0,0,1.11.28,2.57,2.57,0,0,0,1.24-.32,1.72,1.72,0,0,0,.79-.86l1.4.4a3.06,3.06,0,0,1-.77,1,3.78,3.78,0,0,1-1.2.71A4.19,4.19,0,0,1,39.41,244.21Zm-2.32-4.53h4.68a2.38,2.38,0,0,0-.38-1.16,2.41,2.41,0,0,0-.84-.78,2.29,2.29,0,0,0-1.14-.28,2.23,2.23,0,0,0-1.11.28,2.33,2.33,0,0,0-.84.78A2.38,2.38,0,0,0,37.09,239.68Z"/><path class="cls-4" d="M47.79,244.21a3.11,3.11,0,0,1-1.44-.32,3.39,3.39,0,0,1-1.12-.86,4.38,4.38,0,0,1-.73-1.26,4.46,4.46,0,0,1-.26-1.5,4.39,4.39,0,0,1,.27-1.55,4.13,4.13,0,0,1,.75-1.29,3.37,3.37,0,0,1,1.13-.86,3.31,3.31,0,0,1,1.45-.31,3,3,0,0,1,1.64.43,3.77,3.77,0,0,1,1.17,1.15v-1.47h1.43v7.49a3.25,3.25,0,0,1-.54,1.9,3.49,3.49,0,0,1-1.47,1.2,5.29,5.29,0,0,1-2.11.41,4.48,4.48,0,0,1-2.13-.45,4.4,4.4,0,0,1-1.44-1.21l.92-.86a3,3,0,0,0,1.15,1,3.49,3.49,0,0,0,1.5.32,3.15,3.15,0,0,0,1.24-.23,2,2,0,0,0,.91-.73,2.11,2.11,0,0,0,.34-1.24v-1.19a2.79,2.79,0,0,1-1.14,1.09A3.16,3.16,0,0,1,47.79,244.21Zm.53-1.32a2.12,2.12,0,0,0,.71-.12,2.72,2.72,0,0,0,.63-.34,2.91,2.91,0,0,0,.5-.49,1.91,1.91,0,0,0,.29-.59v-2a2.67,2.67,0,0,0-.55-.88,2.38,2.38,0,0,0-.8-.58,2.08,2.08,0,0,0-1.86,0,2.08,2.08,0,0,0-.71.61,2.79,2.79,0,0,0-.46.85,2.93,2.93,0,0,0-.17,1,2.72,2.72,0,0,0,.19,1,2.69,2.69,0,0,0,.51.82,2.25,2.25,0,0,0,.77.56A2.19,2.19,0,0,0,48.32,242.89Z"/><path class="cls-4" d="M53.48,241.82a2.08,2.08,0,0,1,.42-1.29,2.77,2.77,0,0,1,1.16-.85,4.56,4.56,0,0,1,1.72-.3,7.68,7.68,0,0,1,1.06.08,4,4,0,0,1,.95.23v-.48a1.64,1.64,0,0,0-.48-1.26,2,2,0,0,0-1.41-.45,3.32,3.32,0,0,0-1.23.23,6.7,6.7,0,0,0-1.23.65l-.55-1.1a6.05,6.05,0,0,1,1.55-.77,5.21,5.21,0,0,1,1.64-.25,3.53,3.53,0,0,1,2.45.81,2.94,2.94,0,0,1,.89,2.31v2.85a.67.67,0,0,0,.1.4.46.46,0,0,0,.33.13v1.3l-.4.06-.29,0a1.15,1.15,0,0,1-.79-.25,1,1,0,0,1-.31-.6l0-.44a3.48,3.48,0,0,1-1.29,1,3.94,3.94,0,0,1-1.59.35,3,3,0,0,1-1.38-.31,2.37,2.37,0,0,1-.94-.86A2.22,2.22,0,0,1,53.48,241.82Zm4.93.46a1.8,1.8,0,0,0,.28-.37.72.72,0,0,0,.1-.34v-.87a4,4,0,0,0-.87-.24,4.7,4.7,0,0,0-.9-.08,2.71,2.71,0,0,0-1.45.34,1.1,1.1,0,0,0-.55,1,1.27,1.27,0,0,0,.18.64,1.39,1.39,0,0,0,.53.49,1.8,1.8,0,0,0,.87.19,2.69,2.69,0,0,0,1-.2A2.19,2.19,0,0,0,58.41,242.28Z"/><path class="cls-4" d="M66.65,243.69a5.58,5.58,0,0,1-.52.23,5.35,5.35,0,0,1-.7.2,3.72,3.72,0,0,1-.81.09,2.62,2.62,0,0,1-.94-.17,1.51,1.51,0,0,1-.68-.57,1.74,1.74,0,0,1-.26-1v-4.83h-1v-1.26h1v-2.54h1.63v2.54h1.69v1.26H64.37v4.31a.76.76,0,0,0,.26.58.84.84,0,0,0,.57.2,1.82,1.82,0,0,0,.65-.12l.46-.19Z"/><path class="cls-4" d="M67.77,235v-1.79H69.4V235Zm0,9v-7.75H69.4v7.75Z"/><path class="cls-4" d="M73.52,244.06l-3-7.69h1.69l2.21,6.19,2.21-6.19h1.57l-3,7.69Z"/><path class="cls-4" d="M82.67,244.21A4.1,4.1,0,0,1,81,243.9a3.88,3.88,0,0,1-1.27-.87,4,4,0,0,1-.82-1.27,4.15,4.15,0,0,1,.21-3.5,3.92,3.92,0,0,1,1.41-1.45,4,4,0,0,1,2.12-.55,3.8,3.8,0,0,1,3.47,2,4,4,0,0,1,.49,1.92,3.25,3.25,0,0,1,0,.33c0,.11,0,.19,0,.26H80.38a2.43,2.43,0,0,0,.38,1.18,2.47,2.47,0,0,0,.85.79,2.29,2.29,0,0,0,1.11.28,2.57,2.57,0,0,0,1.24-.32,1.68,1.68,0,0,0,.79-.86l1.4.4a2.93,2.93,0,0,1-.77,1,3.78,3.78,0,0,1-1.2.71A4.17,4.17,0,0,1,82.67,244.21Zm-2.33-4.53H85a2.29,2.29,0,0,0-.38-1.16,2.41,2.41,0,0,0-.84-.78,2.28,2.28,0,0,0-1.13-.28,2.24,2.24,0,0,0-1.12.28,2.41,2.41,0,0,0-.84.78A2.38,2.38,0,0,0,80.34,239.68Z"/><path class="cls-4" d="M91.21,238.94a7.54,7.54,0,0,1,.63-3,28.23,28.23,0,0,1,1.52-3l1.26.53a11.2,11.2,0,0,0-.58,1c-.21.42-.42.88-.62,1.39a14.64,14.64,0,0,0-.49,1.55,7.06,7.06,0,0,0-.19,1.55,6.92,6.92,0,0,0,.51,2.49,15.88,15.88,0,0,0,1.33,2.68l-1.19.61a19.28,19.28,0,0,1-1.12-1.9,9.84,9.84,0,0,1-.77-2A7.16,7.16,0,0,1,91.21,238.94Z"/><path class="cls-4" d="M103.13,239.79a5,5,0,0,1-.5,2.28,3.92,3.92,0,0,1-1.35,1.57,3.41,3.41,0,0,1-2,.57,3.45,3.45,0,0,1-1.94-.57A3.92,3.92,0,0,1,96,242.07a5,5,0,0,1-.5-2.28,5.11,5.11,0,0,1,.5-2.29,4,4,0,0,1,1.35-1.57,3.38,3.38,0,0,1,1.94-.58,3.35,3.35,0,0,1,2,.58,4,4,0,0,1,1.35,1.57A5.11,5.11,0,0,1,103.13,239.79Zm-1.66,0a4,4,0,0,0-.27-1.53,2.44,2.44,0,0,0-.75-1,1.86,1.86,0,0,0-1.12-.37,1.84,1.84,0,0,0-1.12.37,2.38,2.38,0,0,0-.76,1,3.83,3.83,0,0,0-.28,1.53,3.75,3.75,0,0,0,.28,1.52,2.29,2.29,0,0,0,.76,1,1.78,1.78,0,0,0,1.12.37,1.75,1.75,0,0,0,1.11-.37,2.35,2.35,0,0,0,.75-1A3.75,3.75,0,0,0,101.47,239.79Z"/><path class="cls-4" d="M107.44,238.94a7.14,7.14,0,0,1-.28,2,11.23,11.23,0,0,1-.77,2,19.18,19.18,0,0,1-1.11,1.9l-1.2-.61a16.75,16.75,0,0,0,1.34-2.68,6.92,6.92,0,0,0,.51-2.49,7.06,7.06,0,0,0-.19-1.55,12.7,12.7,0,0,0-.5-1.55c-.2-.51-.41-1-.62-1.39s-.41-.75-.57-1l1.24-.53a26.6,26.6,0,0,1,1.53,3A7.7,7.7,0,0,1,107.44,238.94Z"/><g class="cls-5"><rect class="cls-6" x="13.63" y="189.3" width="397.05" height="1"/></g><g class="cls-5"><rect class="cls-6" x="261.23" y="64.07" width="1" height="207.04"/></g></g></g></svg>